<?xml version="1.0" encoding="UTF-8"?>
<svg xmlns="http://www.w3.org/2000/svg" width="76" height="76" viewBox="0 0 76 76" fill="none">
  <path d="M40.8182 42.161L41.2715 41.9499L41.1369 41.661H40.8182V42.161ZM28.4618 42.161V41.661H28.1419L28.0078 41.9515L28.4618 42.161ZM25.2273 49.1684V49.6684H25.5472L25.6813 49.3779L25.2273 49.1684ZM24.1541 49.1684L23.7002 48.9587L23.3723 49.6684H24.1541V49.1684ZM34.2896 27.231V26.731H33.9698L33.8357 27.0213L34.2896 27.231ZM35.0201 27.231L35.4735 27.0203L35.3391 26.731H35.0201V27.231ZM45.2153 49.1684V49.6684H45.999L45.6687 48.9577L45.2153 49.1684ZM44.0825 49.1684L43.6293 49.3795L43.7639 49.6684H44.0825V49.1684ZM40.371 41.1407V41.6407H41.1538L40.8247 40.9305L40.371 41.1407ZM34.6624 28.8215L35.116 28.6112L34.6624 27.6322L34.2087 28.6112L34.6624 28.8215ZM28.9536 41.1407L28.5 40.9305L28.1708 41.6407H28.9536V41.1407ZM50.2532 27.3359V26.8359H49.7532V27.3359H50.2532ZM51.2964 27.3359H51.7964V26.8359H51.2964V27.3359ZM51.2964 49.1533V49.6533H51.7964V49.1533H51.2964ZM50.2532 49.1533H49.7532V49.6533H50.2532V49.1533ZM6.46176 22.8848C6.18562 22.8848 5.96176 23.1087 5.96176 23.3848C5.96176 23.661 6.18562 23.8848 6.46176 23.8848V22.8848ZM9.53869 23.8848C9.81483 23.8848 10.0387 23.661 10.0387 23.3848C10.0387 23.1087 9.81483 22.8848 9.53869 22.8848V23.8848ZM6.46176 50.5771C6.18562 50.5771 5.96176 50.801 5.96176 51.0771C5.96176 51.3533 6.18562 51.5771 6.46176 51.5771V50.5771ZM9.53869 51.5771C9.81483 51.5771 10.0387 51.3533 10.0387 51.0771C10.0387 50.801 9.81483 50.5771 9.53869 50.5771V51.5771ZM53.1156 6.46176C53.1156 6.18562 52.8918 5.96176 52.6156 5.96176C52.3395 5.96176 52.1156 6.18562 52.1156 6.46176H53.1156ZM52.1156 9.53869C52.1156 9.81483 52.3395 10.0387 52.6156 10.0387C52.8918 10.0387 53.1156 9.81483 53.1156 9.53869H52.1156ZM25.4233 6.46176C25.4233 6.18562 25.1994 5.96176 24.9233 5.96176C24.6472 5.96176 24.4233 6.18562 24.4233 6.46176H25.4233ZM24.4233 9.53869C24.4233 9.81483 24.6472 10.0387 24.9233 10.0387C25.1994 10.0387 25.4233 9.81483 25.4233 9.53869H24.4233ZM69.5387 51.5771C69.8148 51.5771 70.0387 51.3533 70.0387 51.0771C70.0387 50.801 69.8148 50.5771 69.5387 50.5771V51.5771ZM66.4618 50.5771C66.1856 50.5771 65.9618 50.801 65.9618 51.0771C65.9618 51.3533 66.1856 51.5771 66.4618 51.5771V50.5771ZM69.5387 23.8848C69.8148 23.8848 70.0387 23.661 70.0387 23.3848C70.0387 23.1087 69.8148 22.8848 69.5387 22.8848V23.8848ZM66.4618 22.8848C66.1856 22.8848 65.9618 23.1087 65.9618 23.3848C65.9618 23.661 66.1856 23.8848 66.4618 23.8848V22.8848ZM24.4233 69.5387C24.4233 69.8148 24.6472 70.0387 24.9233 70.0387C25.1994 70.0387 25.4233 69.8148 25.4233 69.5387H24.4233ZM25.4233 66.4618C25.4233 66.1856 25.1994 65.9618 24.9233 65.9618C24.6472 65.9618 24.4233 66.1856 24.4233 66.4618H25.4233ZM52.1156 69.5387C52.1156 69.8148 52.3395 70.0387 52.6156 70.0387C52.8918 70.0387 53.1156 69.8148 53.1156 69.5387H52.1156ZM53.1156 66.4618C53.1156 66.1856 52.8918 65.9618 52.6156 65.9618C52.3395 65.9618 52.1156 66.1856 52.1156 66.4618H53.1156ZM40.8182 42.161V41.661H28.4618V42.161V42.661H40.8182V42.161ZM28.4618 42.161L28.0078 41.9515L24.7733 48.9588L25.2273 49.1684L25.6813 49.3779L28.9157 42.3705L28.4618 42.161ZM25.2273 49.1684V48.6684H24.1541V49.1684V49.6684H25.2273V49.1684ZM24.1541 49.1684L24.608 49.3781L34.7435 27.4407L34.2896 27.231L33.8357 27.0213L23.7002 48.9587L24.1541 49.1684ZM34.2896 27.231V27.731H35.0201V27.231V26.731H34.2896V27.231ZM35.0201 27.231L34.5666 27.4417L44.7619 49.3791L45.2153 49.1684L45.6687 48.9577L35.4735 27.0203L35.0201 27.231ZM45.2153 49.1684V48.6684H44.0825V49.1684V49.6684H45.2153V49.1684ZM44.0825 49.1684L44.5358 48.9572L41.2715 41.9499L40.8182 42.161L40.365 42.3721L43.6293 49.3795L44.0825 49.1684ZM40.371 41.1407L40.8247 40.9305L35.116 28.6112L34.6624 28.8215L34.2087 29.0317L39.9173 41.3509L40.371 41.1407ZM34.6624 28.8215L34.2087 28.6112L28.5 40.9305L28.9536 41.1407L29.4073 41.3509L35.116 29.0317L34.6624 28.8215ZM28.9536 41.1407V41.6407H40.371V41.1407V40.6407H28.9536V41.1407ZM50.2532 27.3359V27.8359H51.2964V27.3359V26.8359H50.2532V27.3359ZM51.2964 27.3359H50.7964V49.1533H51.2964H51.7964V27.3359H51.2964ZM51.2964 49.1533V48.6533H50.2532V49.1533V49.6533H51.2964V49.1533ZM50.2532 49.1533H50.7532V27.3359H50.2532H49.7532V49.1533H50.2532ZM18.0002 9.53869V10.0387H58.0002V9.53869V9.03869H18.0002V9.53869ZM58.0002 9.53869V10.0387C62.3973 10.0387 65.9618 13.6032 65.9618 18.0002H66.4618H66.9618C66.9618 13.0509 62.9496 9.03869 58.0002 9.03869V9.53869ZM66.4618 18.0002H65.9618V58.0002H66.4618H66.9618V18.0002H66.4618ZM66.4618 58.0002H65.9618C65.9618 62.3973 62.3973 65.9618 58.0002 65.9618V66.4618V66.9618C62.9496 66.9618 66.9618 62.9496 66.9618 58.0002H66.4618ZM58.0002 66.4618V65.9618H18.0002V66.4618V66.9618H58.0002V66.4618ZM18.0002 66.4618V65.9618C13.6032 65.9618 10.0387 62.3973 10.0387 58.0002H9.53869H9.03869C9.03869 62.9496 13.0509 66.9618 18.0002 66.9618V66.4618ZM9.53869 58.0002H10.0387V18.0002H9.53869H9.03869V58.0002H9.53869ZM9.53869 18.0002H10.0387C10.0387 13.6032 13.6032 10.0387 18.0002 10.0387V9.53869V9.03869C13.0509 9.03869 9.03869 13.0509 9.03869 18.0002H9.53869ZM21.0771 15.6925V16.1925H54.9233V15.6925V15.1925H21.0771V15.6925ZM54.9233 15.6925V16.1925C57.621 16.1925 59.8079 18.3795 59.8079 21.0771H60.3079H60.8079C60.8079 17.8272 58.1733 15.1925 54.9233 15.1925V15.6925ZM60.3079 21.0771H59.8079V54.9233H60.3079H60.8079V21.0771H60.3079ZM60.3079 54.9233H59.8079C59.8079 57.621 57.621 59.8079 54.9233 59.8079V60.3079V60.8079C58.1733 60.8079 60.8079 58.1733 60.8079 54.9233H60.3079ZM54.9233 60.3079V59.8079H21.0771V60.3079V60.8079H54.9233V60.3079ZM21.0771 60.3079V59.8079C18.3795 59.8079 16.1925 57.621 16.1925 54.9233H15.6925H15.1925C15.1925 58.1733 17.8272 60.8079 21.0771 60.8079V60.3079ZM15.6925 54.9233H16.1925V21.0771H15.6925H15.1925V54.9233H15.6925ZM15.6925 21.0771H16.1925C16.1925 18.3795 18.3795 16.1925 21.0771 16.1925V15.6925V15.1925C17.8272 15.1925 15.1925 17.8272 15.1925 21.0771H15.6925ZM5.69253 37.231V37.731H10.3079V37.231V36.731H5.69253V37.231ZM6.46176 23.3848V23.8848H9.53869V23.3848V22.8848H6.46176V23.3848ZM6.46176 51.0771V51.5771H9.53869V51.0771V50.5771H6.46176V51.0771ZM5.69253 37.231H5.19253C5.19253 38.2294 4.3832 39.0387 3.38484 39.0387V39.5387V40.0387C4.93549 40.0387 6.19253 38.7816 6.19253 37.231H5.69253ZM3.38484 39.5387V39.0387C2.38648 39.0387 1.57715 38.2294 1.57715 37.231H1.07715H0.577148C0.577148 38.7816 1.83419 40.0387 3.38484 40.0387V39.5387ZM1.07715 37.231H1.57715C1.57715 36.2326 2.38648 35.4233 3.38484 35.4233V34.9233V34.4233C1.83419 34.4233 0.577148 35.6803 0.577148 37.231H1.07715ZM3.38484 34.9233V35.4233C4.3832 35.4233 5.19253 36.2326 5.19253 37.231H5.69253H6.19253C6.19253 35.6803 4.93549 34.4233 3.38484 34.4233V34.9233ZM38.7695 5.69253H38.2695V10.3079H38.7695H39.2695V5.69253H38.7695ZM52.6156 6.46176H52.1156V9.53869H52.6156H53.1156V6.46176H52.6156ZM24.9233 6.46176H24.4233V9.53869H24.9233H25.4233V6.46176H24.9233ZM38.7695 5.69253V5.19253C37.7711 5.19253 36.9618 4.3832 36.9618 3.38484H36.4618H35.9618C35.9618 4.93549 37.2188 6.19253 38.7695 6.19253V5.69253ZM36.4618 3.38484H36.9618C36.9618 2.38648 37.7711 1.57715 38.7695 1.57715V1.07715V0.577148C37.2188 0.577148 35.9618 1.8342 35.9618 3.38484H36.4618ZM38.7695 1.07715V1.57715C39.7678 1.57715 40.5771 2.38648 40.5771 3.38484H41.0771H41.5771C41.5771 1.83419 40.3201 0.577148 38.7695 0.577148V1.07715ZM41.0771 3.38484H40.5771C40.5771 4.3832 39.7678 5.19253 38.7695 5.19253V5.69253V6.19253C40.3201 6.19253 41.5771 4.93549 41.5771 3.38484H41.0771ZM70.3079 37.231V36.731H65.6925V37.231V37.731H70.3079V37.231ZM69.5387 51.0771V50.5771H66.4618V51.0771V51.5771H69.5387V51.0771ZM69.5387 23.3848V22.8848H66.4618V23.3848V23.8848H69.5387V23.3848ZM70.3079 37.231H70.8079C70.8079 36.2326 71.6173 35.4233 72.6156 35.4233V34.9233V34.4233C71.065 34.4233 69.8079 35.6803 69.8079 37.231H70.3079ZM72.6156 34.9233V35.4233C73.614 35.4233 74.4233 36.2326 74.4233 37.231H74.9233H75.4233C75.4233 35.6803 74.1663 34.4233 72.6156 34.4233V34.9233ZM74.9233 37.231H74.4233C74.4233 38.2294 73.614 39.0387 72.6156 39.0387V39.5387V40.0387C74.1663 40.0387 75.4233 38.7816 75.4233 37.231H74.9233ZM72.6156 39.5387V39.0387C71.6173 39.0387 70.8079 38.2294 70.8079 37.231H70.3079H69.8079C69.8079 38.7816 71.065 40.0387 72.6156 40.0387V39.5387ZM38.7695 70.3079H39.2695V65.6925H38.7695H38.2695V70.3079H38.7695ZM24.9233 69.5387H25.4233V66.4618H24.9233H24.4233V69.5387H24.9233ZM52.6156 69.5387H53.1156V66.4618H52.6156H52.1156V69.5387H52.6156ZM38.7695 70.3079V70.8079C39.7678 70.8079 40.5771 71.6173 40.5771 72.6156H41.0771H41.5771C41.5771 71.065 40.3201 69.8079 38.7695 69.8079V70.3079ZM41.0771 72.6156H40.5771C40.5771 73.614 39.7678 74.4233 38.7695 74.4233V74.9233V75.4233C40.3201 75.4233 41.5771 74.1663 41.5771 72.6156H41.0771ZM38.7695 74.9233V74.4233C37.7711 74.4233 36.9618 73.614 36.9618 72.6156H36.4618H35.9618C35.9618 74.1663 37.2188 75.4233 38.7695 75.4233V74.9233ZM36.4618 72.6156H36.9618C36.9618 71.6173 37.7711 70.8079 38.7695 70.8079V70.3079V69.8079C37.2188 69.8079 35.9618 71.065 35.9618 72.6156H36.4618Z" fill="url(#paint0_linear_1599_773)"></path>
  <defs>
    <linearGradient id="paint0_linear_1599_773" x1="1" y1="1" x2="75" y2="75" gradientUnits="userSpaceOnUse">
      <stop offset="0.197115" stop-color="#8259EF"></stop>
      <stop offset="1" stop-color="#2D84EB"></stop>
    </linearGradient>
  </defs>
</svg>
