<?xml version="1.0" encoding="UTF-8"?>
<svg xmlns="http://www.w3.org/2000/svg" xmlns:xlink="http://www.w3.org/1999/xlink" width="42px" height="40px" viewBox="0 0 42 40" version="1.1">
  <title>Combined Shape 2</title>
  <defs>
    <linearGradient x1="100%" y1="95.5682897%" x2="-1.77347152e-13%" y2="4.43171026%" id="linearGradient-1">
      <stop stop-color="#2D84EB" offset="0%"></stop>
      <stop stop-color="#D173DE" offset="100%"></stop>
    </linearGradient>
  </defs>
  <g id="Homepage" stroke="none" stroke-width="1" fill="none" fill-rule="evenodd">
    <g id="Combined-Shape-2" transform="translate(0.499849, 0.499951)" fill="url(#linearGradient-1)" fill-rule="nonzero">
      <path d="M34.8513128,33.1536416 C35.0406044,33.3546971 35.0310678,33.6711359 34.8300124,33.8604275 C32.8417485,35.7323568 30.4775943,37.1733776 27.8469036,38.0880921 C26.1367438,38.6828421 24.3698088,39.0323856 22.5792243,39.1400106 C22.3035794,39.1565786 22.066694,38.9465552 22.0501261,38.6709103 C22.0335582,38.3952654 22.2435816,38.1583801 22.5192265,38.1418121 C24.2189609,38.0396478 25.8955391,37.707979 27.5184541,37.1435706 C30.0154508,36.2753426 32.2581282,34.9083655 34.1445269,33.1323412 C34.3455823,32.9430496 34.6620212,32.9525862 34.8513128,33.1536416 Z M4.57038532,10.6043305 C4.81733379,10.7279066 4.91734683,11.0282762 4.79377069,11.2752246 C3.05016324,14.7595639 2.44648576,18.7198968 3.09481278,22.6157443 C4.54472246,22.5215995 5.91715848,23.3925235 6.40983113,24.808431 C6.90263235,26.225761 6.36671112,27.7610643 5.17262252,28.5868887 C7.08181542,32.0425469 10.0129915,34.7727545 13.5426253,36.4234958 C13.7927635,36.5404806 13.9007057,36.8380927 13.7837209,37.088231 C13.6667361,37.3383692 13.369124,37.4463114 13.1189857,37.3293266 C9.38744867,35.5841591 6.29058565,32.6944436 4.27915213,29.037748 C2.58708205,29.5675567 0.76943247,28.6605121 0.183677712,26.9742837 C-0.40250183,25.2879978 0.460663404,23.4483372 2.11358868,22.8152065 L2.133,22.923 L2.11416199,22.8144672 C1.4216929,18.698436 2.05638873,14.5108809 3.89949116,10.8277158 C4.0230673,10.5807674 4.32343684,10.4807543 4.57038532,10.6043305 Z M10.8201216,14.9953189 C11.0773142,15.0958504 11.204313,15.3858431 11.1037815,15.6430357 C9.9622639,18.5634105 10.1523343,21.858432 11.6159244,24.6519558 C12.8706764,24.0289921 14.414715,24.25878 15.4269247,25.2959056 C16.4400201,26.3339132 16.6320408,27.8835662 15.9797877,29.121673 C18.734898,30.6540151 22.024156,30.924809 24.9718764,29.8549977 C25.2314522,29.7607903 25.5182501,29.8948478 25.6124575,30.1544236 C25.7066649,30.4139994 25.5726074,30.7007973 25.3130316,30.7950047 C22.0554161,31.9772857 18.4191622,31.6613557 15.3891109,29.9384503 L15.3700024,29.9570558 C14.0674825,31.2286765 11.9798523,31.2033162 10.7086378,29.9000242 C9.43755166,28.596864 9.46326864,26.5104824 10.766934,25.2377478 L10.7849881,25.2195077 C9.13750464,22.1485273 8.91102655,18.5059963 10.1724048,15.2789787 C10.2729364,15.0217862 10.5629291,14.8947873 10.8201216,14.9953189 Z M11.729427,25.7467843 L11.5473947,25.8821527 L11.4642339,25.9545251 C10.5568631,26.8403707 10.538947,28.2938839 11.4244993,29.2017819 C12.3099348,30.1095602 13.7641981,30.1272264 14.6708665,29.2420674 C14.6928064,29.2205799 14.7131235,29.1990035 14.7358667,29.1726267 L14.8682511,29.0056255 L14.9851526,28.8420318 C15.5654947,27.9527165 15.4667822,26.7684502 14.7112738,25.9943637 C13.9145814,25.1780604 12.6424315,25.0812476 11.729427,25.7467843 Z M40.9270792,17.8987363 C41.2762557,21.8954326 40.3653315,25.8986834 38.3563081,29.3802894 C38.2182927,29.6194679 37.9125166,29.7014768 37.6733381,29.5634614 C37.4341596,29.425446 37.3521507,29.1196699 37.4901661,28.8804914 C39.3976455,25.5748597 40.2620257,21.7761559 39.9308739,17.9857711 C39.9068399,17.7106766 40.1103647,17.4681851 40.3854592,17.4441511 C40.6605537,17.4201171 40.9030452,17.6236418 40.9270792,17.8987363 Z M2.79760935,23.6643173 L2.56888361,23.7145823 L2.3889273,23.782598 C1.29194855,24.2532137 0.730023579,25.5003865 1.12827129,26.6460414 C1.54452511,27.8443228 2.85376857,28.4776956 4.05228594,28.0602445 C4.0836587,28.0493727 4.11714211,28.0339286 4.18888942,27.9974521 L4.43379668,27.8712556 C5.38358745,27.3289141 5.83008698,26.1860052 5.46533435,25.1369517 C5.08241897,24.0364791 3.93324746,23.4090707 2.79760935,23.6643173 Z M27.1118786,9.29279444 L27.061,9.339 L27.1785954,9.23260507 C28.4872473,8.10107159 30.4672982,8.17137506 31.6918593,9.42569197 C32.9376324,10.7029004 32.9384323,12.7318143 31.7135429,14.0074479 C33.3608653,17.0781242 33.5876064,20.7229591 32.325985,23.951734 C32.2254841,24.2089385 31.9355065,24.335972 31.678302,24.2354711 C31.4210974,24.1349702 31.294064,23.8449926 31.3945649,23.5877881 C32.5311607,20.6789821 32.3477556,17.3984372 30.9011003,14.6119119 C29.628729,15.3072729 28.0200243,15.102242 26.9735365,14.0297738 C25.9269171,12.9571708 25.761221,11.3439499 26.4870881,10.0902779 C23.736981,8.57433977 20.4620446,8.31023632 17.5267517,9.37595089 C17.2671877,9.47019061 16.9803731,9.33616877 16.8861334,9.07660474 C16.7918937,8.8170407 16.9259155,8.53022609 17.1854795,8.43598638 C20.4432405,7.25319358 24.0806611,7.56927128 27.1118786,9.29279444 Z M21.1476845,15.2392995 C21.4238268,15.2392995 21.6476845,15.4631571 21.6476845,15.7392995 L21.647,18.893 L24.801871,18.8934861 C25.0780134,18.8934861 25.301871,19.1173437 25.301871,19.3934861 C25.301871,19.6696284 25.0780134,19.8934861 24.801871,19.8934861 L21.647,19.893 L21.6476845,23.0478742 C21.6476845,23.3240166 21.4238268,23.5478742 21.1476845,23.5478742 C20.8715421,23.5478742 20.6476845,23.3240166 20.6476845,23.0478742 L20.647,19.893 L17.4932963,19.8934861 C17.2171539,19.8934861 16.9932963,19.6696284 16.9932963,19.3934861 C16.9932963,19.1173437 17.2171539,18.8934861 17.4932963,18.8934861 L20.647,18.893 L20.6476845,15.7392995 C20.6476845,15.4631571 20.8715421,15.2392995 21.1476845,15.2392995 Z M27.7289001,10.0843627 C27.7248436,10.0883584 27.7204176,10.0930711 27.7149598,10.0993148 L27.4762627,10.3998609 C26.8330046,11.2946772 26.9077356,12.5304634 27.6892592,13.3313893 C28.5140556,14.1766622 29.8428591,14.2465467 30.7652478,13.5042862 L30.8923747,13.408028 L30.9364263,13.3710319 C31.8442363,12.4855654 31.8618949,11.0321858 30.976157,10.1240974 C30.0903114,9.2167266 28.6367982,9.19881043 27.7289001,10.0843627 Z M28.620073,1.39584313 C32.3564179,2.87902059 35.5554044,5.4522813 37.7623216,8.80235708 C37.9142342,9.0329588 37.8504441,9.34304798 37.6198424,9.49496063 C37.3892407,9.64687329 37.0791515,9.58308319 36.9272388,9.35248146 C34.8342382,6.17532958 31.7986757,3.73352697 28.2511198,2.32529112 C27.9944598,2.22340751 27.8689888,1.93275051 27.9708724,1.67609054 C28.072756,1.41943056 28.363413,1.29395953 28.620073,1.39584313 Z M23.074414,0.0716330609 C23.3495434,0.0952644601 23.5534228,0.337457913 23.5297914,0.61258728 C23.50616,0.887716646 23.2639665,1.09159603 22.9888371,1.06796463 C20.4075255,0.846250729 17.8012145,1.16651145 15.303692,2.03588389 C13.6812339,2.60013343 12.1616357,3.3805009 10.7651136,4.3562631 C10.5387518,4.51442413 10.2270344,4.45913642 10.0688733,4.23277454 C9.91071231,4.00641265 9.96600002,3.69469525 10.1923619,3.53653422 C11.6636089,2.50856108 13.2652954,1.68603834 14.9750803,1.09141879 C17.6061588,0.175556279 20.3536796,-0.162056139 23.074414,0.0716330609 Z" id="Combined-Shape"></path>
    </g>
  </g>
</svg>
