<?xml version="1.0" encoding="UTF-8"?>
<svg xmlns="http://www.w3.org/2000/svg" xmlns:xlink="http://www.w3.org/1999/xlink" width="1900px" height="1900px" viewBox="0 0 1900 1900" version="1.1">
  <title>Group 864</title>
  <g id="Homepage" stroke="none" stroke-width="1" fill="none" fill-rule="evenodd">
    <g id="Homepage---R1" transform="translate(82.000000, -2859.000000)" stroke="#F0F0F0" stroke-width="3">
      <g id="Group-864" transform="translate(-82.000000, 2858.999670)">
        <line x1="900.281003" y1="1898.69833" x2="902.579548" y2="1854.84689" id="Stroke-1"></line>
        <line x1="916.001643" y1="1598.73032" x2="923.358745" y2="1458.34879" id="Stroke-3"></line>
        <line x1="925.753099" y1="1412.66312" x2="928.757029" y2="1355.33794" id="Stroke-4"></line>
        <line x1="906.569589" y1="1778.70474" x2="913.091655" y2="1654.26358" id="Stroke-5"></line>
        <line x1="933.56925" y1="1263.52206" x2="950.147999" y2="947.190875" id="Stroke-6"></line>
        <line x1="954.10332" y1="871.70741" x2="961.450533" y2="731.509361" id="Stroke-7"></line>
        <line x1="952.354031" y1="905.086742" x2="953.492316" y2="883.375821" id="Stroke-8"></line>
        <line x1="964.009806" y1="682.680556" x2="971.021906" y2="548.881515" id="Stroke-9"></line>
        <line x1="973.100925" y1="509.21206" x2="976.52457" y2="443.896909" id="Stroke-10"></line>
        <line x1="986.147694" y1="260.265592" x2="992.557689" y2="137.94609" id="Stroke-11"></line>
        <line x1="996.514109" y1="62.4620764" x2="999.719107" y2="1.30232561" id="Stroke-12"></line>
        <line x1="978.352968" y1="408.997373" x2="980.628439" y2="365.576631" id="Stroke-14"></line>
        <line x1="981.734641" y1="344.470672" x2="982.872927" y2="322.759752" id="Stroke-15"></line>
        <line x1="994.76482" y1="95.8412982" x2="995.903105" y2="74.1303777" id="Stroke-16"></line>
        <line x1="850.698139" y1="1894.79597" x2="855.288637" y2="1851.12472" id="Stroke-17"></line>
        <line x1="882.096349" y1="1596.06195" x2="896.790775" y2="1456.25834" id="Stroke-19"></line>
        <line x1="901.572342" y1="1410.76012" x2="907.57251" y2="1353.67007" id="Stroke-20"></line>
        <line x1="863.258061" y1="1775.29603" x2="876.283514" y2="1651.36689" id="Stroke-21"></line>
        <line x1="917.183219" y1="1262.23248" x2="950.29457" y2="947.202192" id="Stroke-22"></line>
        <line x1="958.195213" y1="872.029448" x2="972.869862" y2="732.408233" id="Stroke-23"></line>
        <line x1="954.701359" y1="905.271439" x2="956.973534" y2="883.650614" id="Stroke-24"></line>
        <line x1="977.981047" y1="683.780056" x2="991.98547" y2="550.531479" id="Stroke-25"></line>
        <line x1="996.138343" y1="511.025185" x2="1002.97465" y2="445.978125" id="Stroke-26"></line>
        <line x1="1022.19606" y1="263.102735" x2="1034.99957" y2="141.285353" id="Stroke-27"></line>
        <line x1="1042.90055" y1="66.1126095" x2="1049.30175" y2="5.20446802" id="Stroke-28"></line>
        <line x1="1006.62793" y1="411.222633" x2="1011.17338" y2="367.979885" id="Stroke-30"></line>
        <line x1="1013.38215" y1="346.961385" x2="1015.65433" y2="325.34056" id="Stroke-31"></line>
        <line x1="1039.40658" y1="99.3544899" x2="1041.67876" y2="77.7336653" id="Stroke-32"></line>
        <line x1="801.387431" y1="1888.30423" x2="808.256696" y2="1844.93293" id="Stroke-33"></line>
        <line x1="848.37718" y1="1591.62274" x2="870.368277" y2="1452.77943" id="Stroke-34"></line>
        <line x1="877.524421" y1="1407.59413" x2="886.504348" y2="1350.89632" id="Stroke-35"></line>
        <line x1="820.184298" y1="1769.62537" x2="839.677979" y2="1646.54775" id="Stroke-36"></line>
        <line x1="900.887283" y1="1260.0871" x2="950.440042" y2="947.22131" id="Stroke-37"></line>
        <line x1="962.264692" y1="872.565189" x2="984.226123" y2="733.903166" id="Stroke-38"></line>
        <line x1="957.035833" y1="905.578754" x2="960.436404" y2="884.106258" id="Stroke-39"></line>
        <line x1="991.875597" y1="685.609333" x2="1012.83499" y2="553.275999" id="Stroke-40"></line>
        <line x1="1019.0493" y1="514.041421" x2="1029.28068" y2="449.441544" id="Stroke-41"></line>
        <line x1="1058.04644" y1="267.822663" x2="1077.2083" y2="146.842514" id="Stroke-42"></line>
        <line x1="1089.0323" y1="72.1859538" x2="1098.61323" y2="11.6964288" id="Stroke-43"></line>
        <line x1="1034.74785" y1="414.924696" x2="1041.5501" y2="371.979705" id="Stroke-44"></line>
        <line x1="1044.85585" y1="351.104809" x2="1048.25642" y2="329.632313" id="Stroke-45"></line>
        <line x1="1083.80344" y1="105.199628" x2="1087.20401" y2="83.7271319" id="Stroke-46"></line>
        <line x1="752.484022" y1="1879.24047" x2="761.613376" y2="1836.28889" id="Stroke-47"></line>
        <line x1="814.93654" y1="1585.4248" x2="844.163877" y2="1447.92304" id="Stroke-48"></line>
        <line x1="853.67515" y1="1403.17393" x2="865.609564" y2="1347.02439" id="Stroke-49"></line>
        <line x1="777.466304" y1="1761.70792" x2="803.374376" y2="1639.81912" id="Stroke-50"></line>
        <line x1="884.725832" y1="1257.09174" x2="950.584854" y2="947.248558" id="Stroke-51"></line>
        <line x1="966.30055" y1="873.313205" x2="995.489433" y2="735.990535" id="Stroke-52"></line>
        <line x1="959.351078" y1="906.007918" x2="963.871257" y2="884.743082" id="Stroke-53"></line>
        <line x1="1005.65533" y1="688.163223" x2="1033.51145" y2="557.108811" id="Stroke-54"></line>
        <line x1="1041.77094" y1="518.252636" x2="1055.36993" y2="454.276839" id="Stroke-55"></line>
        <line x1="1093.60082" y1="274.412081" x2="1119.0672" y2="154.600981" id="Stroke-56"></line>
        <line x1="1134.78301" y1="80.6654087" x2="1147.5162" y2="20.7593097" id="Stroke-57"></line>
        <line x1="1062.63529" y1="420.093346" x2="1071.67565" y2="377.562576" id="Stroke-58"></line>
        <line x1="1076.06969" y1="356.890066" x2="1080.58987" y2="335.62523" id="Stroke-59"></line>
        <line x1="1127.83342" y1="113.360121" x2="1132.3536" y2="92.0952854" id="Stroke-60"></line>
        <line x1="704.122068" y1="1867.62974" x2="715.487339" y2="1825.21434" id="Stroke-61"></line>
        <line x1="781.866061" y1="1577.48527" x2="818.249433" y2="1441.70082" id="Stroke-62"></line>
        <line x1="830.089795" y1="1397.51162" x2="844.946833" y2="1342.06308" id="Stroke-63"></line>
        <line x1="735.221313" y1="1751.56586" x2="767.473457" y2="1631.19991" id="Stroke-64"></line>
        <line x1="868.743364" y1="1253.25475" x2="950.728459" y2="947.282399" id="Stroke-65"></line>
        <line x1="970.29169" y1="874.271408" x2="1006.62672" y2="738.664955" id="Stroke-66"></line>
        <line x1="961.640613" y1="906.557613" x2="967.267214" y2="885.557571" id="Stroke-67"></line>
        <line x1="1019.28256" y1="691.434804" x2="1053.9596" y2="562.017501" id="Stroke-68"></line>
        <line x1="1064.24108" y1="523.647295" x2="1081.16923" y2="460.470274" id="Stroke-69"></line>
        <line x1="1128.76163" y1="282.853629" x2="1160.46441" y2="164.539001" id="Stroke-70"></line>
        <line x1="1180.0272" y1="91.5275712" x2="1195.87859" y2="32.3708066" id="Stroke-71"></line>
        <line x1="1090.2142" y1="426.714407" x2="1101.4674" y2="384.715423" id="Stroke-72"></line>
        <line x1="1106.93787" y1="364.300895" x2="1112.56447" y2="343.300853" id="Stroke-73"></line>
        <line x1="1171.37602" y1="123.813776" x2="1177.00262" y2="102.813734" id="Stroke-74"></line>
        <line x1="656.433965" y1="1853.50402" x2="670.00329" y2="1811.74126" id="Stroke-75"></line>
        <line x1="749.256391" y1="1567.82599" x2="792.695811" y2="1434.13243" id="Stroke-76"></line>
        <line x1="806.83329" y1="1390.62269" x2="824.572299" y2="1336.02786" id="Stroke-77"></line>
        <line x1="693.564913" y1="1739.22657" x2="732.072131" y2="1620.71417" id="Stroke-78"></line>
        <line x1="852.983609" y1="1248.58647" x2="950.869536" y2="947.324371" id="Stroke-79"></line>
        <line x1="974.227124" y1="875.437162" x2="1017.61051" y2="741.918297" id="Stroke-80"></line>
        <line x1="963.898285" y1="907.2263" x2="970.615925" y2="886.550384" id="Stroke-81"></line>
        <line x1="1032.71993" y1="695.415176" x2="1074.1223" y2="567.990971" id="Stroke-82"></line>
        <line x1="1086.39809" y1="530.210453" x2="1106.60924" y2="468.006908" id="Stroke-83"></line>
        <line x1="1163.4323" y1="293.123466" x2="1201.28358" y2="176.630534" id="Stroke-84"></line>
        <line x1="1224.64084" y1="104.742776" x2="1243.56647" y2="46.4968588" id="Stroke-85"></line>
        <line x1="1117.40867" y1="434.769862" x2="1130.84505" y2="393.416931" id="Stroke-86"></line>
        <line x1="1137.3759" y1="373.31719" x2="1144.09464" y2="352.641274" id="Stroke-87"></line>
        <line x1="1214.312" y1="136.531914" x2="1221.03074" y2="115.855998" id="Stroke-88"></line>
        <line x1="609.550573" y1="1836.90165" x2="625.287694" y2="1795.9069" id="Stroke-89"></line>
        <line x1="717.197074" y1="1556.47303" x2="767.573881" y2="1425.23623" id="Stroke-90"></line>
        <line x1="783.969032" y1="1382.52603" x2="804.540569" y2="1328.93434" id="Stroke-91"></line>
        <line x1="652.611481" y1="1724.7242" x2="697.268295" y2="1608.38949" id="Stroke-92"></line>
        <line x1="837.489747" y1="1243.09984" x2="951.008415" y2="947.374253" id="Stroke-93"></line>
        <line x1="978.096304" y1="876.807279" x2="1028.40719" y2="745.74188" id="Stroke-94"></line>
        <line x1="966.117721" y1="908.012332" x2="973.908822" y2="887.715478" id="Stroke-95"></line>
        <line x1="1045.93041" y1="700.093242" x2="1093.94494" y2="575.010432" id="Stroke-96"></line>
        <line x1="1108.18131" y1="537.924312" x2="1131.62053" y2="476.863447" id="Stroke-97"></line>
        <line x1="1197.51812" y1="305.193793" x2="1241.41351" y2="190.841188" id="Stroke-98"></line>
        <line x1="1268.50184" y1="120.274874" x2="1290.45009" y2="63.0991206" id="Stroke-99"></line>
        <line x1="1144.14419" y1="444.237406" x2="1159.72639" y2="403.644797" id="Stroke-100"></line>
        <line x1="1167.30016" y1="383.913899" x2="1175.09126" y2="363.617045" id="Stroke-101"></line>
        <line x1="1256.52337" y1="151.479927" x2="1264.31447" y2="131.183073" id="Stroke-102"></line>
        <line x1="563.600333" y1="1817.86844" x2="581.4613" y2="1777.75268" id="Stroke-103"></line>
        <line x1="685.775791" y1="1543.4579" x2="742.952642" y2="1415.03715" id="Stroke-104"></line>
        <line x1="761.559978" y1="1373.24385" x2="784.908007" y2="1320.80252" id="Stroke-105"></line>
        <line x1="612.473087" y1="1708.09843" x2="663.157538" y2="1594.26003" id="Stroke-106"></line>
        <line x1="822.304299" y1="1236.80972" x2="951.144768" y2="947.430398" id="Stroke-107"></line>
        <line x1="981.888464" y1="878.378025" x2="1038.9906" y2="750.125377" id="Stroke-108"></line>
        <line x1="968.293208" y1="908.913402" x2="977.135794" y2="889.052744" id="Stroke-109"></line>
        <line x1="1058.87807" y1="705.456367" x2="1113.37402" y2="583.057756" id="Stroke-110"></line>
        <line x1="1129.53074" y1="546.767557" x2="1156.13321" y2="487.016379" id="Stroke-111"></line>
        <line x1="1230.92547" y1="319.031648" x2="1280.74632" y2="207.133608" id="Stroke-112"></line>
        <line x1="1311.48979" y1="138.080905" x2="1336.40022" y2="82.1313353" id="Stroke-113"></line>
        <line x1="1170.34782" y1="455.091218" x2="1188.03299" y2="415.369902" id="Stroke-114"></line>
        <line x1="1196.62924" y1="396.062236" x2="1205.47183" y2="376.201578" id="Stroke-115"></line>
        <line x1="1297.89465" y1="168.616282" x2="1306.73723" y2="148.755624" id="Stroke-116"></line>
        <line x1="518.709159" y1="1796.45649" x2="538.644531" y2="1757.33069" id="Stroke-117"></line>
        <line x1="655.078681" y1="1528.81622" x2="718.898459" y2="1403.5642" id="Stroke-118"></line>
        <line x1="739.667327" y1="1362.80162" x2="765.728123" y2="1311.6535" id="Stroke-119"></line>
        <line x1="573.259824" y1="1689.39462" x2="629.832374" y2="1578.36458" id="Stroke-120"></line>
        <line x1="807.468796" y1="1229.73367" x2="951.277275" y2="947.493905" id="Stroke-121"></line>
        <line x1="985.593054" y1="880.145113" x2="1049.32933" y2="755.05681" id="Stroke-122"></line>
        <line x1="970.418374" y1="909.927091" x2="980.288272" y2="890.556467" id="Stroke-123"></line>
        <line x1="1071.52732" y1="711.489717" x2="1132.35415" y2="592.110419" id="Stroke-124"></line>
        <line x1="1150.38828" y1="556.716125" x2="1180.08148" y2="498.439444" id="Stroke-125"></line>
        <line x1="1263.56283" y1="334.598796" x2="1319.17069" y2="225.460767" id="Stroke-126"></line>
        <line x1="1353.48702" y1="158.112525" x2="1381.2915" y2="103.54406" id="Stroke-127"></line>
        <line x1="1195.94737" y1="467.301633" x2="1215.68717" y2="428.560385" id="Stroke-128"></line>
        <line x1="1225.28195" y1="409.728908" x2="1235.15184" y2="390.358285" id="Stroke-129"></line>
        <line x1="1338.31234" y1="187.894612" x2="1348.18224" y2="168.523988" id="Stroke-130"></line>
        <line x1="475.00011" y1="1772.72434" x2="496.956047" y2="1734.69617" id="Stroke-131"></line>
        <line x1="625.189907" y1="1512.58796" x2="695.476814" y2="1390.84749" id="Stroke-132"></line>
        <line x1="718.351181" y1="1351.22792" x2="747.053325" y2="1301.51474" id="Stroke-133"></line>
        <line x1="535.079259" y1="1668.66432" x2="597.384986" y2="1560.74698" id="Stroke-134"></line>
        <line x1="793.024002" y1="1221.89082" x2="951.407145" y2="947.564114" id="Stroke-135"></line>
        <line x1="989.200188" y1="882.103601" x2="1059.3948" y2="760.522446" id="Stroke-136"></line>
        <line x1="972.487723" y1="911.050653" x2="983.357467" y2="892.222802" id="Stroke-137"></line>
        <line x1="1083.84343" y1="718.176812" x2="1150.83414" y2="602.144248" id="Stroke-138"></line>
        <line x1="1170.69656" y1="567.742548" x2="1203.39918" y2="511.099679" id="Stroke-139"></line>
        <line x1="1295.34054" y1="351.852824" x2="1356.58489" y2="245.774761" id="Stroke-140"></line>
        <line x1="1394.37826" y1="180.314688" x2="1424.99989" y2="127.275657" id="Stroke-141"></line>
        <line x1="1220.87274" y1="480.83503" x2="1242.61333" y2="443.179328" id="Stroke-142"></line>
        <line x1="1253.18037" y1="424.87656" x2="1264.05011" y2="406.04871" id="Stroke-143"></line>
        <line x1="1377.66569" y1="209.26174" x2="1388.53543" y2="190.433889" id="Stroke-144"></line>
        <line x1="432.593057" y1="1746.73738" x2="456.50913" y2="1709.91012" id="Stroke-145"></line>
        <line x1="596.191545" y1="1494.81764" x2="672.753304" y2="1376.92163" id="Stroke-146"></line>
        <line x1="697.669991" y1="1338.5545" x2="728.934376" y2="1290.41141" id="Stroke-147"></line>
        <line x1="498.03588" y1="1645.9641" x2="565.904481" y2="1541.45612" id="Stroke-148"></line>
        <line x1="779.009581" y1="1213.3027" x2="951.53229" y2="947.640585" id="Stroke-149"></line>
        <line x1="992.699975" y1="884.248214" x2="1069.16175" y2="766.507123" id="Stroke-150"></line>
        <line x1="974.495324" y1="912.280902" x2="986.336346" y2="894.047464" id="Stroke-151"></line>
        <line x1="1095.79268" y1="725.499304" x2="1168.76488" y2="613.132106" id="Stroke-152"></line>
        <line x1="1190.39999" y1="579.81683" x2="1226.02194" y2="524.963794" id="Stroke-153"></line>
        <line x1="1326.17191" y1="370.74627" x2="1392.88355" y2="268.019335" id="Stroke-154"></line>
        <line x1="1434.05145" y1="204.626414" x2="1467.40782" y2="153.262947" id="Stroke-155"></line>
        <line x1="1245.0558" y1="495.654381" x2="1268.73675" y2="459.188605" id="Stroke-156"></line>
        <line x1="1280.2476" y1="441.46344" x2="1292.08862" y2="423.230003" id="Stroke-157"></line>
        <line x1="1415.84669" y1="232.659102" x2="1427.68772" y2="214.425665" id="Stroke-158"></line>
        <line x1="391.604135" y1="1718.56636" x2="417.41442" y2="1683.0411" id="Stroke-159"></line>
        <line x1="568.162812" y1="1475.55414" x2="650.790664" y2="1361.82672" id="Stroke-160"></line>
        <line x1="677.680452" y1="1324.81608" x2="711.421376" y2="1278.37493" id="Stroke-161"></line>
        <line x1="462.23132" y1="1621.35638" x2="535.476011" y2="1520.54343" id="Stroke-162"></line>
        <line x1="765.463659" y1="1203.99283" x2="951.65348" y2="947.724858" id="Stroke-163"></line>
        <line x1="996.082637" y1="886.573018" x2="1078.60171" y2="772.995019" id="Stroke-164"></line>
        <line x1="976.435902" y1="913.614541" x2="989.214141" y2="896.026058" id="Stroke-165"></line>
        <line x1="1107.34231" y1="733.437194" x2="1186.09494" y2="625.043007" id="Stroke-166"></line>
        <line x1="1209.44451" y1="592.90568" x2="1247.8891" y2="539.991904" id="Stroke-167"></line>
        <line x1="1355.97235" y1="391.22749" x2="1427.96888" y2="292.13296" id="Stroke-168"></line>
        <line x1="1472.39782" y1="230.98123" x2="1508.39663" y2="181.433965" id="Stroke-169"></line>
        <line x1="1268.42998" y1="511.719034" x2="1293.98756" y2="476.542069" id="Stroke-170"></line>
        <line x1="1306.40992" y1="459.44406" x2="1319.18816" y2="441.855577" id="Stroke-171"></line>
        <line x1="1452.75119" y1="258.022643" x2="1465.52943" y2="240.434161" id="Stroke-172"></line>
        <line x1="352.145746" y1="1688.28897" x2="379.779924" y2="1654.16349" id="Stroke-173"></line>
        <line x1="541.180731" y1="1454.8501" x2="629.647238" y2="1345.6033" id="Stroke-174"></line>
        <line x1="658.437281" y1="1310.05024" x2="694.563549" y2="1265.43847" id="Stroke-175"></line>
        <line x1="427.763805" y1="1594.90839" x2="506.184617" y2="1498.06736" id="Stroke-176"></line>
        <line x1="752.423592" y1="1193.9868" x2="951.770715" y2="947.813965" id="Stroke-177"></line>
        <line x1="999.339056" y1="889.071752" x2="1087.6891" y2="779.967784" id="Stroke-178"></line>
        <line x1="978.303855" y1="915.047945" x2="991.98525" y2="898.152762" id="Stroke-179"></line>
        <line x1="1118.4607" y1="741.968729" x2="1202.7784" y2="637.845308" id="Stroke-180"></line>
        <line x1="1227.77771" y1="606.97339" x2="1268.93837" y2="556.143906" id="Stroke-181"></line>
        <line x1="1384.65977" y1="413.240122" x2="1461.74343" y2="318.049383" id="Stroke-182"></line>
        <line x1="1509.31265" y1="259.30673" x2="1547.85502" y2="211.710811" id="Stroke-183"></line>
        <line x1="1290.93144" y1="528.984929" x2="1318.29533" y2="495.194562" id="Stroke-184"></line>
        <line x1="1331.59503" y1="478.769526" x2="1345.27642" y2="461.874342" id="Stroke-185"></line>
        <line x1="1488.27744" y1="285.283033" x2="1501.95884" y2="268.38785" id="Stroke-186"></line>
        <line x1="314.326004" y1="1655.98782" x2="343.708263" y2="1623.35552" id="Stroke-187"></line>
        <line x1="515.319245" y1="1432.7622" x2="609.381588" y2="1328.29488" id="Stroke-188"></line>
        <line x1="639.993327" y1="1294.29762" x2="678.403856" y2="1251.6383" id="Stroke-189"></line>
        <line x1="394.727607" y1="1566.69287" x2="478.109188" y2="1474.08854" id="Stroke-190"></line>
        <line x1="739.92509" y1="1183.31219" x2="951.882346" y2="947.909115" id="Stroke-191"></line>
        <line x1="1002.46011" y1="891.737492" x2="1096.3994" y2="787.40751" id="Stroke-192"></line>
        <line x1="980.094346" y1="916.577159" x2="994.641542" y2="900.421421" id="Stroke-193"></line>
        <line x1="1129.1174" y1="751.070175" x2="1218.76944" y2="651.502092" id="Stroke-194"></line>
        <line x1="1245.3496" y1="621.981174" x2="1289.11425" y2="573.375521" id="Stroke-195"></line>
        <line x1="1412.15595" y1="436.724065" x2="1494.11687" y2="345.697515" id="Stroke-196"></line>
        <line x1="1544.69408" y1="289.525452" x2="1585.67455" y2="244.012727" id="Stroke-197"></line>
        <line x1="1312.49854" y1="547.404931" x2="1341.59293" y2="515.092357" id="Stroke-198"></line>
        <line x1="1355.73436" y1="499.38644" x2="1370.28156" y2="483.230702" id="Stroke-199"></line>
        <line x1="1522.32821" y1="314.365229" x2="1536.87541" y2="298.209491" id="Stroke-200"></line>
        <line x1="278.248629" y1="1621.75159" x2="309.298761" y2="1590.70146" id="Stroke-201"></line>
        <line x1="490.649113" y1="1409.35111" x2="590.050189" y2="1309.95003" id="Stroke-202"></line>
        <line x1="622.399021" y1="1277.6012" x2="662.989433" y2="1237.00969" id="Stroke-203"></line>
        <line x1="363.213371" y1="1536.78696" x2="451.327186" y2="1448.67314" id="Stroke-204"></line>
        <line x1="728.002432" y1="1171.9979" x2="951.989692" y2="948.010638" id="Stroke-205"></line>
        <line x1="1005.43745" y1="894.562879" x2="1104.70778" y2="795.291453" id="Stroke-206"></line>
        <line x1="981.802323" y1="918.197896" x2="997.174666" y2="902.825554" id="Stroke-207"></line>
        <line x1="1139.28308" y1="760.717251" x2="1234.02334" y2="665.976991" id="Stroke-208"></line>
        <line x1="1262.11206" y1="637.888158" x2="1308.36094" y2="591.639283" id="Stroke-209"></line>
        <line x1="1438.38529" y1="461.614932" x2="1524.99714" y2="375.003082" id="Stroke-210"></line>
        <line x1="1578.44578" y1="321.554554" x2="1621.75225" y2="278.24808" id="Stroke-211"></line>
        <line x1="1333.07172" y1="566.928388" x2="1363.81751" y2="536.182604" id="Stroke-212"></line>
        <line x1="1378.76178" y1="521.238547" x2="1394.13412" y2="505.866205" id="Stroke-213"></line>
        <line x1="1554.81054" y1="345.189681" x2="1570.18288" y2="329.817339" id="Stroke-214"></line>
        <line x1="244.012507" y1="1585.67433" x2="276.64591" y2="1556.29207" id="Stroke-215"></line>
        <line x1="467.238126" y1="1384.68108" x2="571.70545" y2="1290.61874" id="Stroke-216"></line>
        <line x1="605.702708" y1="1260.007" x2="648.362029" y2="1221.59647" id="Stroke-217"></line>
        <line x1="333.307457" y1="1505.27272" x2="425.911785" y2="1421.89114" id="Stroke-218"></line>
        <line x1="716.688142" y1="1160.07513" x2="952.091214" y2="948.117874" id="Stroke-219"></line>
        <line x1="1008.26284" y1="897.540219" x2="1112.59282" y2="803.600934" id="Stroke-220"></line>
        <line x1="983.423171" y1="919.905983" x2="999.580007" y2="905.358788" id="Stroke-221"></line>
        <line x1="1148.93004" y1="770.882928" x2="1248.49813" y2="681.230891" id="Stroke-222"></line>
        <line x1="1278.01905" y1="654.650615" x2="1326.6247" y2="610.88597" id="Stroke-223"></line>
        <line x1="1463.27615" y1="487.844273" x2="1554.3027" y2="405.883351" id="Stroke-224"></line>
        <line x1="1610.47477" y1="355.306135" x2="1655.98749" y2="314.325674" id="Stroke-225"></line>
        <line x1="1352.59529" y1="587.501793" x2="1384.90786" y2="558.407401" id="Stroke-226"></line>
        <line x1="1400.61378" y1="544.265857" x2="1416.76952" y2="529.718661" id="Stroke-227"></line>
        <line x1="1585.6351" y1="377.672009" x2="1601.79084" y2="363.124814" id="Stroke-228"></line>
        <line x1="211.71136" y1="1547.85458" x2="245.83684" y2="1520.22041" id="Stroke-229"></line>
        <line x1="445.150231" y1="1358.81949" x2="554.397034" y2="1270.35298" id="Stroke-230"></line>
        <line x1="589.949985" y1="1241.56294" x2="634.561751" y2="1205.43777" id="Stroke-231"></line>
        <line x1="305.091941" y1="1472.23652" x2="401.932974" y2="1393.81571" id="Stroke-232"></line>
        <line x1="706.013423" y1="1147.57674" x2="952.186255" y2="948.229615" id="Stroke-233"></line>
        <line x1="1010.92858" y1="900.661274" x2="1120.03255" y2="812.311232" id="Stroke-234"></line>
        <line x1="984.952384" y1="921.696365" x2="1001.84757" y2="908.014969" id="Stroke-235"></line>
        <line x1="1158.03149" y1="781.539518" x2="1262.15491" y2="697.221819" id="Stroke-236"></line>
        <line x1="1293.02694" y1="672.222507" x2="1343.85642" y2="631.061854" id="Stroke-237"></line>
        <line x1="1486.76021" y1="515.34045" x2="1581.95095" y2="438.256794" id="Stroke-238"></line>
        <line x1="1640.69349" y1="390.687684" x2="1688.28941" y2="352.145307" id="Stroke-239"></line>
        <line x1="1371.01529" y1="609.068779" x2="1404.80676" y2="581.704889" id="Stroke-240"></line>
        <line x1="1421.2308" y1="568.404973" x2="1438.12599" y2="554.723577" id="Stroke-241"></line>
        <line x1="1614.7173" y1="411.722775" x2="1631.61248" y2="398.041379" id="Stroke-242"></line>
        <line x1="181.433965" y1="1508.39619" x2="216.959228" y2="1482.58591" id="Stroke-243"></line>
        <line x1="424.446188" y1="1331.83741" x2="538.172516" y2="1249.20956" id="Stroke-244"></line>
        <line x1="575.184251" y1="1222.31988" x2="621.625405" y2="1188.57895" id="Stroke-245"></line>
        <line x1="278.643952" y1="1437.7689" x2="379.456897" y2="1364.52421" id="Stroke-246"></line>
        <line x1="696.007501" y1="1134.53667" x2="952.275471" y2="948.34685" id="Stroke-247"></line>
        <line x1="1013.4272" y1="903.917692" x2="1127.0052" y2="821.398615" id="Stroke-248"></line>
        <line x1="986.385789" y1="923.564427" x2="1003.97427" y2="910.786188" id="Stroke-249"></line>
        <line x1="1166.56303" y1="792.658015" x2="1274.95721" y2="713.905387" id="Stroke-250"></line>
        <line x1="1307.09454" y1="690.555819" x2="1360.00832" y2="652.111229" id="Stroke-251"></line>
        <line x1="1508.77273" y1="544.027982" x2="1607.86726" y2="472.031449" id="Stroke-252"></line>
        <line x1="1669.01899" y1="427.602292" x2="1718.56625" y2="391.604575" id="Stroke-253"></line>
        <line x1="1388.28119" y1="631.570237" x2="1423.45815" y2="606.01266" id="Stroke-254"></line>
        <line x1="1440.55594" y1="593.590409" x2="1458.14442" y2="580.81217" id="Stroke-255"></line>
        <line x1="1641.97758" y1="447.249137" x2="1659.56606" y2="434.470898" id="Stroke-256"></line>
        <line x1="153.263057" y1="1467.40727" x2="190.090316" y2="1443.4912" id="Stroke-257"></line>
        <line x1="405.18258" y1="1303.80878" x2="523.077493" y2="1227.24703" id="Stroke-258"></line>
        <line x1="561.445831" y1="1202.33023" x2="609.588919" y2="1171.06584" id="Stroke-259"></line>
        <line x1="254.036228" y1="1401.96445" x2="358.544205" y2="1334.09585" id="Stroke-260"></line>
        <line x1="686.697626" y1="1120.99075" x2="952.359744" y2="948.46804" id="Stroke-261"></line>
        <line x1="1015.75201" y1="907.300355" x2="1133.4931" y2="830.83858" id="Stroke-262"></line>
        <line x1="987.719428" y1="925.504896" x2="1005.95287" y2="913.663874" id="Stroke-263"></line>
        <line x1="1174.50081" y1="804.207653" x2="1286.868" y2="731.235448" id="Stroke-264"></line>
        <line x1="1320.1835" y1="709.60023" x2="1375.03654" y2="673.978279" id="Stroke-265"></line>
        <line x1="1529.25406" y1="573.828308" x2="1631.98099" y2="507.11667" id="Stroke-266"></line>
        <line x1="1695.37381" y1="465.948766" x2="1746.73727" y2="432.592397" id="Stroke-267"></line>
        <line x1="1404.34584" y1="654.944526" x2="1440.81162" y2="631.263581" id="Stroke-268"></line>
        <line x1="1458.53678" y1="619.752398" x2="1476.77022" y2="607.912475" id="Stroke-269"></line>
        <line x1="1667.34112" y1="484.153526" x2="1685.57456" y2="472.312504" id="Stroke-270"></line>
        <line x1="127.275876" y1="1425.00022" x2="165.304048" y2="1403.04428" id="Stroke-271"></line>
        <line x1="387.412368" y1="1274.81031" x2="509.152838" y2="1204.52341" id="Stroke-272"></line>
        <line x1="548.772411" y1="1181.64915" x2="598.485585" y2="1152.947" id="Stroke-273"></line>
        <line x1="231.33601" y1="1364.92107" x2="339.253349" y2="1302.61534" id="Stroke-274"></line>
        <line x1="678.109506" y1="1106.97622" x2="952.436216" y2="948.593075" id="Stroke-275"></line>
        <line x1="1017.89673" y1="910.800032" x2="1139.47788" y2="840.605418" id="Stroke-276"></line>
        <line x1="988.949677" y1="927.512606" x2="1007.77753" y2="916.642863" id="Stroke-277"></line>
        <line x1="1181.82352" y1="816.1569" x2="1297.85498" y2="749.166185" id="Stroke-278"></line>
        <line x1="1332.25767" y1="729.303659" x2="1388.90054" y2="696.601036" id="Stroke-279"></line>
        <line x1="1548.14751" y1="604.659573" x2="1654.22557" y2="543.41522" id="Stroke-280"></line>
        <line x1="1719.68564" y1="505.622067" x2="1772.72467" y2="475.000439" id="Stroke-281"></line>
        <line x1="1419.1653" y1="679.127481" x2="1456.821" y2="657.386894" id="Stroke-282"></line>
        <line x1="1475.12377" y1="646.819851" x2="1493.95162" y2="635.950107" id="Stroke-283"></line>
        <line x1="1690.73848" y1="522.334531" x2="1709.56633" y2="511.464787" id="Stroke-284"></line>
        <line x1="103.543841" y1="1381.29117" x2="142.669644" y2="1361.3558" id="Stroke-285"></line>
        <line x1="371.184114" y1="1244.92165" x2="496.436128" y2="1181.10187" id="Stroke-286"></line>
        <line x1="537.198711" y1="1160.333" x2="588.345728" y2="1134.27221" id="Stroke-287"></line>
        <line x1="210.605597" y1="1326.7404" x2="321.63564" y2="1270.16785" id="Stroke-288"></line>
        <line x1="670.266656" y1="1092.53142" x2="952.506425" y2="948.722945" id="Stroke-289"></line>
        <line x1="1019.85522" y1="914.407165" x2="1144.94352" y2="850.67199" id="Stroke-290"></line>
        <line x1="990.073239" y1="929.581846" x2="1009.44386" y2="919.711947" id="Stroke-291"></line>
        <line x1="1188.51061" y1="828.473013" x2="1307.88991" y2="767.646177" id="Stroke-292"></line>
        <line x1="1343.2842" y1="749.61194" x2="1401.56089" y2="719.91874" id="Stroke-293"></line>
        <line x1="1565.40153" y1="636.437504" x2="1674.53846" y2="580.828541" id="Stroke-294"></line>
        <line x1="1741.88769" y1="546.513201" x2="1796.45616" y2="518.70872" id="Stroke-295"></line>
        <line x1="1432.6987" y1="704.052958" x2="1471.43994" y2="684.31316" id="Stroke-296"></line>
        <line x1="1490.27131" y1="674.718274" x2="1509.64194" y2="664.848375" id="Stroke-297"></line>
        <line x1="1712.10572" y1="561.687992" x2="1731.47634" y2="551.818093" id="Stroke-298"></line>
        <line x1="82.1318847" y1="1336.4" x2="122.247645" y2="1318.53903" id="Stroke-299"></line>
        <line x1="356.542317" y1="1214.22454" x2="484.963071" y2="1157.04769" id="Stroke-300"></line>
        <line x1="526.756483" y1="1138.44035" x2="579.197805" y2="1115.09232" id="Stroke-301"></line>
        <line x1="191.901903" y1="1287.52724" x2="305.740302" y2="1236.84279" id="Stroke-302"></line>
        <line x1="663.1905" y1="1077.69603" x2="952.569821" y2="948.855562" id="Stroke-303"></line>
        <line x1="1021.6222" y1="918.111866" x2="1149.87484" y2="861.009728" id="Stroke-304"></line>
        <line x1="991.086928" y1="931.707121" x2="1010.94759" y2="922.864536" id="Stroke-305"></line>
        <line x1="1194.54396" y1="841.122261" x2="1316.94257" y2="786.626312" id="Stroke-306"></line>
        <line x1="1353.23277" y1="770.469476" x2="1412.98285" y2="743.867006" id="Stroke-307"></line>
        <line x1="1580.96868" y1="669.074863" x2="1692.86672" y2="619.254014" id="Stroke-308"></line>
        <line x1="1761.91931" y1="588.510428" x2="1817.86888" y2="563.600003" id="Stroke-309"></line>
        <line x1="1444.90889" y1="729.652506" x2="1484.63021" y2="711.967335" id="Stroke-310"></line>
        <line x1="1503.93809" y1="703.371085" x2="1523.79875" y2="694.5285" id="Stroke-311"></line>
        <line x1="1731.38405" y1="602.105573" x2="1751.24471" y2="593.262988" id="Stroke-312"></line>
        <line x1="63.0986811" y1="1290.44976" x2="104.093426" y2="1274.71264" id="Stroke-313"></line>
        <line x1="343.527192" y1="1182.80326" x2="474.763993" y2="1132.42645" id="Stroke-314"></line>
        <line x1="517.474295" y1="1116.0313" x2="571.065989" y2="1095.45976" id="Stroke-315"></line>
        <line x1="175.276019" y1="1247.38885" x2="291.610734" y2="1202.73203" id="Stroke-316"></line>
        <line x1="656.900486" y1="1062.51047" x2="952.626076" y2="948.991805" id="Stroke-317"></line>
        <line x1="1023.19305" y1="921.904025" x2="1154.25845" y2="871.593142" id="Stroke-318"></line>
        <line x1="991.987997" y1="933.882498" x2="1012.28485" y2="926.091398" id="Stroke-319"></line>
        <line x1="1199.90698" y1="854.069815" x2="1324.99089" y2="806.055279" id="Stroke-320"></line>
        <line x1="1362.07602" y1="791.819024" x2="1423.13688" y2="768.3798" id="Stroke-321"></line>
        <line x1="1594.80654" y1="702.482212" x2="1709.15914" y2="658.586818" id="Stroke-322"></line>
        <line x1="1779.72535" y1="631.49838" x2="1836.9022" y2="609.550133" id="Stroke-323"></line>
        <line x1="1455.76292" y1="755.856027" x2="1496.35553" y2="740.273827" id="Stroke-324"></line>
        <line x1="1516.08643" y1="732.699836" x2="1536.38219" y2="724.908736" id="Stroke-325"></line>
        <line x1="1748.52062" y1="643.476853" x2="1768.81748" y2="635.685753" id="Stroke-326"></line>
        <line x1="46.4963094" y1="1243.56636" x2="88.2590668" y2="1229.99704" id="Stroke-327"></line>
        <line x1="332.174336" y1="1150.74383" x2="465.868998" y2="1107.30441" id="Stroke-328"></line>
        <line x1="509.377638" y1="1093.16704" x2="563.972473" y2="1075.42803" id="Stroke-329"></line>
        <line x1="160.773651" y1="1206.43531" x2="279.286051" y2="1167.92809" id="Stroke-330"></line>
        <line x1="651.413864" y1="1047.01672" x2="952.675959" y2="949.130794" id="Stroke-331"></line>
        <line x1="1024.56317" y1="925.773096" x2="1158.08203" y2="882.389711" id="Stroke-332"></line>
        <line x1="992.774029" y1="936.102044" x2="1013.44995" y2="929.384404" id="Stroke-333"></line>
        <line x1="1204.58515" y1="867.280404" x2="1332.00936" y2="825.87803" id="Stroke-334"></line>
        <line x1="1369.78977" y1="813.602131" x2="1431.99441" y2="793.390978" id="Stroke-335"></line>
        <line x1="1606.87686" y1="736.567918" x2="1723.3698" y2="698.716642" id="Stroke-336"></line>
        <line x1="1795.25755" y1="675.359383" x2="1853.50457" y2="656.433745" id="Stroke-337"></line>
        <line x1="1465.23047" y1="782.591663" x2="1506.5834" y2="769.155284" id="Stroke-338"></line>
        <line x1="1526.68303" y1="762.624428" x2="1547.36004" y2="755.90569" id="Stroke-339"></line>
        <line x1="1763.46842" y1="685.688222" x2="1784.14433" y2="678.970582" id="Stroke-340"></line>
        <line x1="32.370477" y1="1195.87826" x2="74.7858805" y2="1184.51299" id="Stroke-341"></line>
        <line x1="322.514954" y1="1118.13427" x2="458.299402" y2="1081.7509" id="Stroke-342"></line>
        <line x1="502.488706" y1="1069.91042" x2="557.937254" y2="1055.05339" id="Stroke-343"></line>
        <line x1="148.434465" y1="1164.77902" x2="268.800423" y2="1132.52687" id="Stroke-344"></line>
        <line x1="646.745577" y1="1031.25686" x2="952.716832" y2="949.271761" id="Stroke-345"></line>
        <line x1="1025.72892" y1="929.70864" x2="1161.33537" y2="893.372514" id="Stroke-346"></line>
        <line x1="993.442717" y1="938.359716" x2="1014.44276" y2="932.733116" id="Stroke-347"></line>
        <line x1="1208.56553" y1="880.717772" x2="1337.98283" y2="846.040729" id="Stroke-348"></line>
        <line x1="1376.35303" y1="835.759246" x2="1439.53006" y2="818.831101" id="Stroke-349"></line>
        <line x1="1617.14692" y1="771.238698" x2="1735.46155" y2="739.535919" id="Stroke-350"></line>
        <line x1="1808.47276" y1="719.973127" x2="1867.62952" y2="704.121738" id="Stroke-351"></line>
        <line x1="1473.2857" y1="809.786129" x2="1515.28469" y2="798.532928" id="Stroke-352"></line>
        <line x1="1535.69943" y1="793.062458" x2="1556.69838" y2="787.435857" id="Stroke-353"></line>
        <line x1="1776.18655" y1="728.623984" x2="1797.1855" y2="722.997384" id="Stroke-354"></line>
        <line x1="20.7598591" y1="1147.5162" x2="63.712542" y2="1138.38684" id="Stroke-355"></line>
        <line x1="314.575416" y1="1085.06379" x2="452.078278" y2="1055.83645" id="Stroke-356"></line>
        <line x1="496.826397" y1="1046.32518" x2="552.975935" y2="1034.38967" id="Stroke-357"></line>
        <line x1="138.292301" y1="1122.53392" x2="260.1811" y2="1096.62584" id="Stroke-358"></line>
        <line x1="642.908479" y1="1015.2745" x2="952.751661" y2="949.415475" id="Stroke-359"></line>
        <line x1="1026.68712" y1="933.699779" x2="1164.00979" y2="904.510897" id="Stroke-360"></line>
        <line x1="993.992412" y1="940.649252" x2="1015.25725" y2="936.129073" id="Stroke-361"></line>
        <line x1="1211.837" y1="894.345" x2="1342.89141" y2="866.488879" id="Stroke-362"></line>
        <line x1="1381.74758" y1="858.22939" x2="1445.72338" y2="844.630399" id="Stroke-363"></line>
        <line x1="1625.58814" y1="806.399401" x2="1745.39924" y2="780.933019" id="Stroke-364"></line>
        <line x1="1819.33492" y1="765.217323" x2="1879.24102" y2="752.484132" id="Stroke-365"></line>
        <line x1="1479.90687" y1="837.364931" x2="1522.43764" y2="828.324574" id="Stroke-366"></line>
        <line x1="1543.11026" y1="823.93064" x2="1564.3751" y2="819.410462" id="Stroke-367"></line>
        <line x1="1786.64021" y1="772.166795" x2="1807.90504" y2="767.646617" id="Stroke-368"></line>
        <line x1="11.6960992" y1="1098.6129" x2="55.0673985" y2="1091.74363" id="Stroke-369"></line>
        <line x1="308.377585" y1="1051.62315" x2="447.220899" y2="1029.63205" id="Stroke-370"></line>
        <line x1="492.406203" y1="1022.4758" x2="549.104008" y2="1013.49587" id="Stroke-371"></line>
        <line x1="130.375066" y1="1079.81603" x2="253.452692" y2="1060.32235" id="Stroke-372"></line>
        <line x1="639.913229" y1="999.113047" x2="952.77902" y2="949.560288" id="Stroke-373"></line>
        <line x1="1027.43514" y1="937.735637" x2="1166.09716" y2="915.774206" id="Stroke-374"></line>
        <line x1="994.421466" y1="942.964497" x2="1015.89396" y2="939.563925" id="Stroke-375"></line>
        <line x1="1214.391" y1="908.124733" x2="1346.72433" y2="887.165344" id="Stroke-376"></line>
        <line x1="1385.95891" y1="880.951032" x2="1450.55879" y2="870.719651" id="Stroke-377"></line>
        <line x1="1632.17789" y1="841.95378" x2="1753.15804" y2="822.791915" id="Stroke-378"></line>
        <line x1="1827.81427" y1="810.968034" x2="1888.30379" y2="801.387101" id="Stroke-379"></line>
        <line x1="1485.07563" y1="865.252477" x2="1528.02062" y2="858.450234" id="Stroke-380"></line>
        <line x1="1548.89541" y1="855.144373" x2="1570.36791" y2="851.743801" id="Stroke-381"></line>
        <line x1="1794.80081" y1="816.196894" x2="1816.27331" y2="812.796322" id="Stroke-382"></line>
        <line x1="5.20424827" y1="1049.30219" x2="48.8755011" y2="1044.71169" id="Stroke-383"></line>
        <line x1="303.938383" y1="1017.90398" x2="443.741988" y2="1003.20955" id="Stroke-385"></line>
        <line x1="489.24021" y1="998.427988" x2="546.330262" y2="992.427819" id="Stroke-386"></line>
        <line x1="124.704297" y1="1036.74216" x2="248.633439" y2="1023.71671" id="Stroke-387"></line>
        <line x1="637.767738" y1="982.817001" x2="952.798028" y2="949.70565" id="Stroke-388"></line>
        <line x1="1027.97088" y1="941.805116" x2="1167.5921" y2="927.130468" id="Stroke-389"></line>
        <line x1="994.728781" y1="945.29897" x2="1016.34961" y2="943.026795" id="Stroke-390"></line>
        <line x1="1216.22027" y1="922.019282" x2="1349.46885" y2="908.013761" id="Stroke-391"></line>
        <line x1="1388.97514" y1="903.861987" x2="1454.0222" y2="897.025684" id="Stroke-392"></line>
        <line x1="1636.89759" y1="877.804267" x2="1758.71498" y2="865.000758" id="Stroke-393"></line>
        <line x1="1833.88761" y1="857.099784" x2="1894.79575" y2="850.698579" id="Stroke-394"></line>
        <line x1="1488.7777" y1="893.372294" x2="1532.02044" y2="888.826845" id="Stroke-396"></line>
        <line x1="1553.03894" y1="886.618176" x2="1574.65977" y2="884.346001" id="Stroke-397"></line>
        <line x1="1800.64573" y1="860.593638" x2="1822.26655" y2="858.321463" id="Stroke-398"></line>
        <line x1="1.30199599" y1="999.719326" x2="45.1534406" y2="997.420782" id="Stroke-399"></line>
        <line x1="301.270006" y1="983.998576" x2="441.651543" y2="976.641475" id="Stroke-401"></line>
        <line x1="487.337209" y1="974.247231" x2="544.662389" y2="971.243301" id="Stroke-402"></line>
        <line x1="121.295594" y1="993.430741" x2="245.736745" y2="986.908675" id="Stroke-403"></line>
        <line x1="636.478157" y1="966.43108" x2="952.809345" y2="949.852331" id="Stroke-404"></line>
        <line x1="1028.29292" y1="945.89701" x2="1168.49097" y2="938.549797" id="Stroke-405"></line>
        <line x1="994.913588" y1="947.646299" x2="1016.62451" y2="946.509113" id="Stroke-406"></line>
        <line x1="1217.31977" y1="935.990523" x2="1351.11881" y2="928.978423" id="Stroke-407"></line>
        <line x1="1390.78827" y1="926.899405" x2="1456.10342" y2="923.476858" id="Stroke-408"></line>
        <line x1="1639.73474" y1="913.852636" x2="1762.05424" y2="907.441542" id="Stroke-409"></line>
        <line x1="1837.53814" y1="903.486221" x2="1898.69789" y2="900.281223" id="Stroke-410"></line>
        <line x1="1491.00285" y1="921.647362" x2="1534.42359" y2="919.37189" id="Stroke-412"></line>
        <line x1="1555.52955" y1="918.265688" x2="1577.24047" y2="917.127403" id="Stroke-413"></line>
        <line x1="1804.15903" y1="905.23551" x2="1825.86995" y2="904.098324" id="Stroke-414"></line>
        <line x1="0" y1="950.00011" x2="43.9118749" y2="950.00011" id="Stroke-415"></line>
        <line x1="300.379704" y1="950.00011" x2="440.953519" y2="950.00011" id="Stroke-417"></line>
        <line x1="486.702252" y1="950.00011" x2="544.106541" y2="950.00011" id="Stroke-418"></line>
        <line x1="120.158298" y1="950.00011" x2="244.769752" y2="950.00011" id="Stroke-419"></line>
        <line x1="636.047894" y1="950.00011" x2="952.81308" y2="950.00011" id="Stroke-420"></line>
        <line x1="1028.40038" y1="950.00011" x2="1168.7907" y2="950.00011" id="Stroke-421"></line>
        <line x1="994.975227" y1="950.00011" x2="1016.71581" y2="950.00011" id="Stroke-422"></line>
        <line x1="1217.68664" y1="950.00011" x2="1351.66917" y2="950.00011" id="Stroke-423"></line>
        <line x1="1391.39312" y1="950.00011" x2="1456.79837" y2="950.00011" id="Stroke-424"></line>
        <line x1="1640.68118" y1="950.00011" x2="1763.16879" y2="950.00011" id="Stroke-425"></line>
        <line x1="1838.75642" y1="950.00011" x2="1900.00077" y2="950.00011" id="Stroke-426"></line>
        <line x1="1491.74537" y1="950.00011" x2="1535.22654" y2="950.00011" id="Stroke-429"></line>
        <line x1="1556.36063" y1="950.00011" x2="1578.10121" y2="950.00011" id="Stroke-430"></line>
        <line x1="1805.33127" y1="950.00011" x2="1827.07185" y2="950.00011" id="Stroke-431"></line>
        <line x1="1.30199599" y1="900.280893" x2="45.1534406" y2="902.579438" id="Stroke-432"></line>
        <line x1="301.270006" y1="916.001643" x2="441.651543" y2="923.358745" id="Stroke-434"></line>
        <line x1="487.337209" y1="925.752989" x2="544.662389" y2="928.756919" id="Stroke-435"></line>
        <line x1="121.295594" y1="906.569589" x2="245.736745" y2="913.091655" id="Stroke-436"></line>
        <line x1="636.478157" y1="933.56914" x2="952.809345" y2="950.147889" id="Stroke-437"></line>
        <line x1="1028.29292" y1="954.10321" x2="1168.49097" y2="961.450423" id="Stroke-438"></line>
        <line x1="994.913588" y1="952.353921" x2="1016.62451" y2="953.492206" id="Stroke-439"></line>
        <line x1="1217.31977" y1="964.009697" x2="1351.11881" y2="971.021797" id="Stroke-440"></line>
        <line x1="1390.78827" y1="973.100815" x2="1456.10342" y2="976.523361" id="Stroke-441"></line>
        <line x1="1639.73474" y1="986.147584" x2="1762.05424" y2="992.557579" id="Stroke-442"></line>
        <line x1="1837.53814" y1="996.513999" x2="1898.69789" y2="999.718997" id="Stroke-443"></line>
        <line x1="1491.00285" y1="978.352858" x2="1534.42359" y2="980.628329" id="Stroke-445"></line>
        <line x1="1555.52955" y1="981.734532" x2="1577.24047" y2="982.872817" id="Stroke-446"></line>
        <line x1="1804.15903" y1="994.76471" x2="1825.86995" y2="995.902995" id="Stroke-447"></line>
        <line x1="5.20424827" y1="850.698029" x2="48.8755011" y2="855.288527" id="Stroke-448"></line>
        <line x1="303.938383" y1="882.09624" x2="443.741988" y2="896.790665" id="Stroke-450"></line>
        <line x1="489.24021" y1="901.572232" x2="546.330262" y2="907.572401" id="Stroke-451"></line>
        <line x1="124.704297" y1="863.258061" x2="248.633439" y2="876.283514" id="Stroke-452"></line>
        <line x1="637.767738" y1="917.183109" x2="952.798028" y2="950.29446" id="Stroke-453"></line>
        <line x1="1027.97088" y1="958.195213" x2="1167.5921" y2="972.869862" id="Stroke-454"></line>
        <line x1="994.728781" y1="954.701249" x2="1016.34961" y2="956.973425" id="Stroke-455"></line>
        <line x1="1216.22027" y1="977.980938" x2="1349.46885" y2="991.986459" id="Stroke-456"></line>
        <line x1="1388.97514" y1="996.138233" x2="1454.0222" y2="1002.97454" id="Stroke-457"></line>
        <line x1="1636.89759" y1="1022.19595" x2="1758.71498" y2="1034.99946" id="Stroke-458"></line>
        <line x1="1833.88761" y1="1042.90044" x2="1894.79575" y2="1049.30274" id="Stroke-459"></line>
        <line x1="1488.7777" y1="1006.62793" x2="1532.02044" y2="1011.17228" id="Stroke-461"></line>
        <line x1="1553.03894" y1="1013.38204" x2="1574.65977" y2="1015.65422" id="Stroke-462"></line>
        <line x1="1800.64573" y1="1039.40647" x2="1822.26655" y2="1041.67865" id="Stroke-463"></line>
        <line x1="11.6960992" y1="801.387321" x2="55.0673985" y2="808.256586" id="Stroke-464"></line>
        <line x1="308.377585" y1="848.377071" x2="447.220899" y2="870.368167" id="Stroke-465"></line>
        <line x1="492.406203" y1="877.524311" x2="549.104008" y2="886.504238" id="Stroke-466"></line>
        <line x1="130.375066" y1="820.184188" x2="253.452692" y2="839.677869" id="Stroke-467"></line>
        <line x1="639.913229" y1="900.887173" x2="952.77902" y2="950.439932" id="Stroke-468"></line>
        <line x1="1027.43514" y1="962.264582" x2="1166.09716" y2="984.226014" id="Stroke-469"></line>
        <line x1="994.421466" y1="957.035723" x2="1015.89396" y2="960.436294" id="Stroke-470"></line>
        <line x1="1214.391" y1="991.875487" x2="1346.72433" y2="1012.83488" id="Stroke-471"></line>
        <line x1="1385.95891" y1="1019.04919" x2="1450.55879" y2="1029.28057" id="Stroke-472"></line>
        <line x1="1632.17789" y1="1058.04644" x2="1753.15804" y2="1077.2083" id="Stroke-473"></line>
        <line x1="1827.81427" y1="1089.03219" x2="1888.30379" y2="1098.61312" id="Stroke-474"></line>
        <line x1="1485.07563" y1="1034.74774" x2="1528.02062" y2="1041.54999" id="Stroke-475"></line>
        <line x1="1548.89541" y1="1044.85574" x2="1570.36791" y2="1048.25631" id="Stroke-476"></line>
        <line x1="1794.80081" y1="1083.80344" x2="1816.27331" y2="1087.20401" id="Stroke-477"></line>
        <line x1="20.7598591" y1="752.484022" x2="63.712542" y2="761.613376" id="Stroke-478"></line>
        <line x1="314.575416" y1="814.93643" x2="452.078278" y2="844.163768" id="Stroke-479"></line>
        <line x1="496.826397" y1="853.675041" x2="552.975935" y2="865.610553" id="Stroke-480"></line>
        <line x1="138.292301" y1="777.466304" x2="260.1811" y2="803.374376" id="Stroke-481"></line>
        <line x1="642.908479" y1="884.725722" x2="952.751661" y2="950.584745" id="Stroke-482"></line>
        <line x1="1026.68712" y1="966.30044" x2="1164.00979" y2="995.489323" id="Stroke-483"></line>
        <line x1="993.992412" y1="959.350968" x2="1015.25725" y2="963.871147" id="Stroke-484"></line>
        <line x1="1211.837" y1="1005.65533" x2="1342.89141" y2="1033.51145" id="Stroke-485"></line>
        <line x1="1381.74758" y1="1041.77083" x2="1445.72338" y2="1055.36982" id="Stroke-486"></line>
        <line x1="1625.58814" y1="1093.60071" x2="1745.39924" y2="1119.06709" id="Stroke-487"></line>
        <line x1="1819.33492" y1="1134.7829" x2="1879.24102" y2="1147.51609" id="Stroke-488"></line>
        <line x1="1479.90687" y1="1062.63529" x2="1522.43764" y2="1071.67565" id="Stroke-489"></line>
        <line x1="1543.11026" y1="1076.06958" x2="1564.3751" y2="1080.58976" id="Stroke-490"></line>
        <line x1="1786.64021" y1="1127.83342" x2="1807.90504" y2="1132.3536" id="Stroke-491"></line>
        <line x1="32.370477" y1="704.122068" x2="74.7858805" y2="715.487339" id="Stroke-492"></line>
        <line x1="322.514954" y1="781.865951" x2="458.299402" y2="818.249323" id="Stroke-493"></line>
        <line x1="502.488706" y1="830.089795" x2="557.937254" y2="844.946833" id="Stroke-494"></line>
        <line x1="148.434465" y1="735.221203" x2="268.800423" y2="767.473347" id="Stroke-495"></line>
        <line x1="646.745577" y1="868.743254" x2="952.716832" y2="950.728349" id="Stroke-496"></line>
        <line x1="1025.72892" y1="970.29158" x2="1161.33537" y2="1006.62661" id="Stroke-497"></line>
        <line x1="993.442717" y1="961.640503" x2="1014.44276" y2="967.267104" id="Stroke-498"></line>
        <line x1="1208.56553" y1="1019.28245" x2="1337.98283" y2="1053.95949" id="Stroke-499"></line>
        <line x1="1376.35303" y1="1064.24097" x2="1439.53006" y2="1081.16912" id="Stroke-500"></line>
        <line x1="1617.14692" y1="1128.76152" x2="1735.46155" y2="1160.4632" id="Stroke-501"></line>
        <line x1="1808.47276" y1="1180.0272" x2="1867.62952" y2="1195.87859" id="Stroke-502"></line>
        <line x1="1473.2857" y1="1090.21409" x2="1515.28469" y2="1101.46729" id="Stroke-503"></line>
        <line x1="1535.69943" y1="1106.93776" x2="1556.69838" y2="1112.56436" id="Stroke-504"></line>
        <line x1="1776.18655" y1="1171.37602" x2="1797.1855" y2="1177.00262" id="Stroke-505"></line>
        <line x1="46.4963094" y1="656.433855" x2="88.2590668" y2="670.003181" id="Stroke-506"></line>
        <line x1="332.174336" y1="749.256171" x2="465.868998" y2="792.695591" id="Stroke-507"></line>
        <line x1="509.377638" y1="806.83318" x2="563.972473" y2="824.572189" id="Stroke-508"></line>
        <line x1="160.773651" y1="693.565023" x2="279.286051" y2="732.072241" id="Stroke-509"></line>
        <line x1="651.413864" y1="852.983499" x2="952.675959" y2="950.869426" id="Stroke-510"></line>
        <line x1="1024.56317" y1="974.227014" x2="1158.08203" y2="1017.6104" id="Stroke-511"></line>
        <line x1="992.774029" y1="963.898175" x2="1013.44995" y2="970.615815" id="Stroke-512"></line>
        <line x1="1204.58515" y1="1032.71982" x2="1332.00936" y2="1074.12219" id="Stroke-513"></line>
        <line x1="1369.78977" y1="1086.39809" x2="1431.99441" y2="1106.60924" id="Stroke-514"></line>
        <line x1="1606.87686" y1="1163.4323" x2="1723.3698" y2="1201.28358" id="Stroke-515"></line>
        <line x1="1795.25755" y1="1224.64084" x2="1853.50457" y2="1243.56647" id="Stroke-516"></line>
        <line x1="1465.23047" y1="1117.40856" x2="1506.5834" y2="1130.84494" id="Stroke-517"></line>
        <line x1="1526.68303" y1="1137.37579" x2="1547.36004" y2="1144.09453" id="Stroke-518"></line>
        <line x1="1763.46842" y1="1214.31189" x2="1784.14433" y2="1221.03063" id="Stroke-519"></line>
        <line x1="63.0986811" y1="609.550463" x2="104.093426" y2="625.287584" id="Stroke-520"></line>
        <line x1="343.527192" y1="717.196964" x2="474.763993" y2="767.573771" id="Stroke-521"></line>
        <line x1="517.474295" y1="783.969032" x2="571.065989" y2="804.540569" id="Stroke-522"></line>
        <line x1="175.276019" y1="652.611371" x2="291.610734" y2="697.268185" id="Stroke-523"></line>
        <line x1="656.900486" y1="837.489637" x2="952.626076" y2="951.008305" id="Stroke-524"></line>
        <line x1="1023.19305" y1="978.096194" x2="1154.25845" y2="1028.40708" id="Stroke-525"></line>
        <line x1="991.987997" y1="966.117721" x2="1012.28485" y2="973.908822" id="Stroke-526"></line>
        <line x1="1199.90698" y1="1045.93041" x2="1324.99089" y2="1093.94494" id="Stroke-527"></line>
        <line x1="1362.07602" y1="1108.1812" x2="1423.13688" y2="1131.62042" id="Stroke-528"></line>
        <line x1="1594.80654" y1="1197.51812" x2="1709.15914" y2="1241.41351" id="Stroke-529"></line>
        <line x1="1779.72535" y1="1268.50184" x2="1836.9022" y2="1290.45009" id="Stroke-530"></line>
        <line x1="1455.76292" y1="1144.14419" x2="1496.35553" y2="1159.72639" id="Stroke-531"></line>
        <line x1="1516.08643" y1="1167.30027" x2="1536.38219" y2="1175.09137" id="Stroke-532"></line>
        <line x1="1748.52062" y1="1256.52337" x2="1768.81748" y2="1264.31447" id="Stroke-533"></line>
        <line x1="82.1318847" y1="563.600223" x2="122.247645" y2="581.461191" id="Stroke-534"></line>
        <line x1="356.542317" y1="685.775681" x2="484.963071" y2="742.952533" id="Stroke-535"></line>
        <line x1="526.756483" y1="761.559758" x2="579.197805" y2="784.907788" id="Stroke-536"></line>
        <line x1="191.901903" y1="612.472977" x2="305.740302" y2="663.157428" id="Stroke-537"></line>
        <line x1="663.1905" y1="822.304189" x2="952.569821" y2="951.144658" id="Stroke-538"></line>
        <line x1="1021.6222" y1="981.888354" x2="1149.87484" y2="1038.99049" id="Stroke-539"></line>
        <line x1="991.086928" y1="968.293099" x2="1010.94759" y2="977.135684" id="Stroke-540"></line>
        <line x1="1194.54396" y1="1058.87796" x2="1316.94257" y2="1113.37391" id="Stroke-541"></line>
        <line x1="1353.23277" y1="1129.53085" x2="1412.98285" y2="1156.13332" id="Stroke-542"></line>
        <line x1="1580.96868" y1="1230.92536" x2="1692.86672" y2="1280.74621" id="Stroke-543"></line>
        <line x1="1761.91931" y1="1311.48979" x2="1817.86888" y2="1336.40022" id="Stroke-544"></line>
        <line x1="1444.90889" y1="1170.34771" x2="1484.63021" y2="1188.03288" id="Stroke-545"></line>
        <line x1="1503.93809" y1="1196.62913" x2="1523.79875" y2="1205.47172" id="Stroke-546"></line>
        <line x1="1731.38405" y1="1297.89465" x2="1751.24471" y2="1306.73723" id="Stroke-547"></line>
        <line x1="103.543841" y1="518.709049" x2="142.669644" y2="538.644421" id="Stroke-548"></line>
        <line x1="371.184114" y1="655.078571" x2="496.436128" y2="718.898349" id="Stroke-549"></line>
        <line x1="537.198711" y1="739.667218" x2="588.345728" y2="765.728013" id="Stroke-550"></line>
        <line x1="210.605597" y1="573.259824" x2="321.63564" y2="629.832374" id="Stroke-551"></line>
        <line x1="670.266656" y1="807.468796" x2="952.506425" y2="951.277275" id="Stroke-552"></line>
        <line x1="1019.85522" y1="985.593054" x2="1144.94352" y2="1049.32823" id="Stroke-553"></line>
        <line x1="990.073239" y1="970.418264" x2="1009.44386" y2="980.288162" id="Stroke-554"></line>
        <line x1="1188.51061" y1="1071.52721" x2="1307.88991" y2="1132.35404" id="Stroke-555"></line>
        <line x1="1343.2842" y1="1150.38828" x2="1401.56089" y2="1180.08148" id="Stroke-556"></line>
        <line x1="1565.40153" y1="1263.56272" x2="1674.53846" y2="1319.17168" id="Stroke-557"></line>
        <line x1="1741.88769" y1="1353.48691" x2="1796.45616" y2="1381.29139" id="Stroke-558"></line>
        <line x1="1432.6987" y1="1195.94726" x2="1471.43994" y2="1215.68706" id="Stroke-559"></line>
        <line x1="1490.27131" y1="1225.28206" x2="1509.64194" y2="1235.15195" id="Stroke-560"></line>
        <line x1="1712.10572" y1="1338.31223" x2="1731.47634" y2="1348.18213" id="Stroke-561"></line>
        <line x1="127.275876" y1="475" x2="165.304048" y2="496.955937" id="Stroke-562"></line>
        <line x1="387.412368" y1="625.189907" x2="509.152838" y2="695.476814" id="Stroke-563"></line>
        <line x1="548.772411" y1="718.351181" x2="598.485585" y2="747.053325" id="Stroke-564"></line>
        <line x1="231.33601" y1="535.079039" x2="339.253349" y2="597.384766" id="Stroke-565"></line>
        <line x1="678.109506" y1="793.024002" x2="952.436216" y2="951.407145" id="Stroke-566"></line>
        <line x1="1017.89673" y1="989.200188" x2="1139.47788" y2="1059.3948" id="Stroke-567"></line>
        <line x1="988.949677" y1="972.487613" x2="1007.77753" y2="983.357357" id="Stroke-568"></line>
        <line x1="1181.82352" y1="1083.84332" x2="1297.85498" y2="1150.83403" id="Stroke-569"></line>
        <line x1="1332.25767" y1="1170.69656" x2="1388.90054" y2="1203.39918" id="Stroke-570"></line>
        <line x1="1548.14751" y1="1295.34065" x2="1654.22557" y2="1356.585" id="Stroke-571"></line>
        <line x1="1719.68564" y1="1394.37815" x2="1772.72467" y2="1424.99978" id="Stroke-572"></line>
        <line x1="1419.1653" y1="1220.87263" x2="1456.821" y2="1242.61322" id="Stroke-573"></line>
        <line x1="1475.12377" y1="1253.18037" x2="1493.95162" y2="1264.05011" id="Stroke-574"></line>
        <line x1="1690.73848" y1="1377.66569" x2="1709.56633" y2="1388.53543" id="Stroke-575"></line>
        <line x1="153.263057" y1="432.592947" x2="190.090316" y2="456.50902" id="Stroke-576"></line>
        <line x1="405.18258" y1="596.191435" x2="523.077493" y2="672.753194" id="Stroke-577"></line>
        <line x1="561.445831" y1="697.670101" x2="609.588919" y2="728.934486" id="Stroke-578"></line>
        <line x1="254.036228" y1="498.03577" x2="358.544205" y2="565.904371" id="Stroke-579"></line>
        <line x1="686.697626" y1="779.009471" x2="952.359744" y2="951.53218" id="Stroke-580"></line>
        <line x1="1015.75201" y1="992.699865" x2="1133.4931" y2="1069.16164" id="Stroke-581"></line>
        <line x1="987.719428" y1="974.495214" x2="1005.95287" y2="986.336236" id="Stroke-582"></line>
        <line x1="1174.50081" y1="1095.79257" x2="1286.868" y2="1168.76477" id="Stroke-583"></line>
        <line x1="1320.1835" y1="1190.39988" x2="1375.03654" y2="1226.02183" id="Stroke-584"></line>
        <line x1="1529.25406" y1="1326.17202" x2="1631.98099" y2="1392.88366" id="Stroke-585"></line>
        <line x1="1695.37381" y1="1434.05134" x2="1746.73727" y2="1467.40771" id="Stroke-586"></line>
        <line x1="1404.34584" y1="1245.05569" x2="1440.81162" y2="1268.73664" id="Stroke-587"></line>
        <line x1="1458.53678" y1="1280.2476" x2="1476.77022" y2="1292.08862" id="Stroke-588"></line>
        <line x1="1667.34112" y1="1415.8468" x2="1685.57456" y2="1427.68783" id="Stroke-589"></line>
        <line x1="181.433965" y1="391.604026" x2="216.959228" y2="417.414311" id="Stroke-590"></line>
        <line x1="424.446188" y1="568.162812" x2="538.172516" y2="650.790664" id="Stroke-591"></line>
        <line x1="575.184251" y1="677.680342" x2="621.625405" y2="711.421266" id="Stroke-592"></line>
        <line x1="278.643952" y1="462.23132" x2="379.456897" y2="535.476011" id="Stroke-593"></line>
        <line x1="696.007501" y1="765.463549" x2="952.275471" y2="951.65337" id="Stroke-594"></line>
        <line x1="1013.4272" y1="996.082527" x2="1127.0052" y2="1078.6016" id="Stroke-595"></line>
        <line x1="986.385789" y1="976.435792" x2="1003.97427" y2="989.214032" id="Stroke-596"></line>
        <line x1="1166.56303" y1="1107.34231" x2="1274.95721" y2="1186.09494" id="Stroke-597"></line>
        <line x1="1307.09454" y1="1209.4444" x2="1360.00832" y2="1247.88899" id="Stroke-598"></line>
        <line x1="1508.77273" y1="1355.97224" x2="1607.86726" y2="1427.96877" id="Stroke-599"></line>
        <line x1="1669.01899" y1="1472.39782" x2="1718.56625" y2="1508.39663" id="Stroke-600"></line>
        <line x1="1388.28119" y1="1268.42987" x2="1423.45815" y2="1293.98745" id="Stroke-601"></line>
        <line x1="1440.55594" y1="1306.40981" x2="1458.14442" y2="1319.18805" id="Stroke-602"></line>
        <line x1="1641.97758" y1="1452.75108" x2="1659.56606" y2="1465.52932" id="Stroke-603"></line>
        <line x1="211.71136" y1="352.145636" x2="245.83684" y2="379.779814" id="Stroke-604"></line>
        <line x1="445.150231" y1="541.180731" x2="554.397034" y2="629.647238" id="Stroke-605"></line>
        <line x1="589.949985" y1="658.437281" x2="634.561751" y2="694.562451" id="Stroke-606"></line>
        <line x1="305.091941" y1="427.763695" x2="401.932974" y2="506.184507" id="Stroke-607"></line>
        <line x1="706.013423" y1="752.423482" x2="952.186255" y2="951.770605" id="Stroke-608"></line>
        <line x1="1010.92858" y1="999.338946" x2="1120.03255" y2="1087.68899" id="Stroke-609"></line>
        <line x1="984.952384" y1="978.303855" x2="1001.84757" y2="991.98525" id="Stroke-610"></line>
        <line x1="1158.03149" y1="1118.4607" x2="1262.15491" y2="1202.7784" id="Stroke-611"></line>
        <line x1="1293.02694" y1="1227.77771" x2="1343.85642" y2="1268.93837" id="Stroke-612"></line>
        <line x1="1486.76021" y1="1384.65977" x2="1581.95095" y2="1461.74452" id="Stroke-613"></line>
        <line x1="1640.69349" y1="1509.31254" x2="1688.28941" y2="1547.85491" id="Stroke-614"></line>
        <line x1="1371.01529" y1="1290.93133" x2="1404.80676" y2="1318.29522" id="Stroke-615"></line>
        <line x1="1421.2308" y1="1331.59503" x2="1438.12599" y2="1345.27642" id="Stroke-616"></line>
        <line x1="1614.7173" y1="1488.27733" x2="1631.61248" y2="1501.95873" id="Stroke-617"></line>
        <line x1="244.012507" y1="314.325894" x2="276.64591" y2="343.708153" id="Stroke-618"></line>
        <line x1="467.238126" y1="515.319135" x2="571.70545" y2="609.381478" id="Stroke-619"></line>
        <line x1="605.702708" y1="639.993217" x2="648.362029" y2="678.403747" id="Stroke-620"></line>
        <line x1="333.307457" y1="394.727497" x2="425.911785" y2="478.109079" id="Stroke-621"></line>
        <line x1="716.688142" y1="739.92487" x2="952.091214" y2="951.882126" id="Stroke-622"></line>
        <line x1="1008.26284" y1="1002.46" x2="1112.59282" y2="1096.39929" id="Stroke-623"></line>
        <line x1="983.423171" y1="980.094346" x2="999.580007" y2="994.641542" id="Stroke-624"></line>
        <line x1="1148.93004" y1="1129.11729" x2="1248.49813" y2="1218.76933" id="Stroke-625"></line>
        <line x1="1278.01905" y1="1245.3496" x2="1326.6247" y2="1289.11425" id="Stroke-626"></line>
        <line x1="1463.27615" y1="1412.15595" x2="1554.3027" y2="1494.11687" id="Stroke-627"></line>
        <line x1="1610.47477" y1="1544.69397" x2="1655.98749" y2="1585.67444" id="Stroke-628"></line>
        <line x1="1352.59529" y1="1312.49843" x2="1384.90786" y2="1341.59282" id="Stroke-629"></line>
        <line x1="1400.61378" y1="1355.73447" x2="1416.76952" y2="1370.28167" id="Stroke-630"></line>
        <line x1="1585.6351" y1="1522.32832" x2="1601.79084" y2="1536.87552" id="Stroke-631"></line>
        <line x1="278.248629" y1="278.248519" x2="309.298761" y2="309.298651" id="Stroke-632"></line>
        <line x1="490.649113" y1="490.649003" x2="590.050189" y2="590.050079" id="Stroke-633"></line>
        <line x1="622.399021" y1="622.399131" x2="662.989433" y2="662.989542" id="Stroke-634"></line>
        <line x1="363.213371" y1="363.213261" x2="451.327186" y2="451.327076" id="Stroke-635"></line>
        <line x1="728.002432" y1="728.002432" x2="951.989692" y2="951.989692" id="Stroke-636"></line>
        <line x1="1005.43745" y1="1005.43745" x2="1104.70778" y2="1104.70778" id="Stroke-637"></line>
        <line x1="981.802323" y1="981.802213" x2="997.174666" y2="997.175655" id="Stroke-638"></line>
        <line x1="1139.28308" y1="1139.28297" x2="1234.02334" y2="1234.02323" id="Stroke-639"></line>
        <line x1="1262.11206" y1="1262.11206" x2="1308.36094" y2="1308.36094" id="Stroke-640"></line>
        <line x1="1438.38529" y1="1438.3854" x2="1524.99714" y2="1524.99725" id="Stroke-641"></line>
        <line x1="1578.44578" y1="1578.44567" x2="1621.75225" y2="1621.75214" id="Stroke-642"></line>
        <line x1="1333.07172" y1="1333.07183" x2="1363.81751" y2="1363.81762" id="Stroke-643"></line>
        <line x1="1378.76178" y1="1378.76167" x2="1394.13412" y2="1394.13402" id="Stroke-644"></line>
        <line x1="1554.81054" y1="1554.81043" x2="1570.18288" y2="1570.18277" id="Stroke-645"></line>
        <line x1="314.326004" y1="244.012397" x2="343.708263" y2="276.644702" id="Stroke-646"></line>
        <line x1="515.319245" y1="467.238016" x2="609.381588" y2="571.70534" id="Stroke-647"></line>
        <line x1="639.993327" y1="605.702598" x2="678.403856" y2="648.36192" id="Stroke-648"></line>
        <line x1="394.727607" y1="333.307347" x2="478.109188" y2="425.911675" id="Stroke-649"></line>
        <line x1="739.92509" y1="716.688032" x2="951.882346" y2="952.090006" id="Stroke-650"></line>
        <line x1="1002.46011" y1="1008.26273" x2="1096.3994" y2="1112.59271" id="Stroke-651"></line>
        <line x1="980.094346" y1="983.423061" x2="994.641542" y2="999.578799" id="Stroke-652"></line>
        <line x1="1129.1174" y1="1148.92993" x2="1218.76944" y2="1248.49802" id="Stroke-653"></line>
        <line x1="1245.3496" y1="1278.01905" x2="1289.11425" y2="1326.6247" id="Stroke-654"></line>
        <line x1="1412.15595" y1="1463.27615" x2="1494.11687" y2="1554.3027" id="Stroke-655"></line>
        <line x1="1544.69408" y1="1610.47455" x2="1585.67455" y2="1655.98727" id="Stroke-656"></line>
        <line x1="1312.49854" y1="1352.59518" x2="1341.59293" y2="1384.90775" id="Stroke-657"></line>
        <line x1="1355.73436" y1="1400.61378" x2="1370.28156" y2="1416.76952" id="Stroke-658"></line>
        <line x1="1522.32821" y1="1585.63499" x2="1536.87541" y2="1601.79073" id="Stroke-659"></line>
        <line x1="352.145746" y1="211.71125" x2="379.779924" y2="245.83673" id="Stroke-660"></line>
        <line x1="541.180731" y1="445.150121" x2="629.647238" y2="554.396924" id="Stroke-661"></line>
        <line x1="658.437281" y1="589.950094" x2="694.563549" y2="634.561861" id="Stroke-662"></line>
        <line x1="427.763805" y1="305.091831" x2="506.184617" y2="401.932864" id="Stroke-663"></line>
        <line x1="752.423592" y1="706.013313" x2="951.770715" y2="952.186145" id="Stroke-664"></line>
        <line x1="999.339056" y1="1010.92847" x2="1087.6891" y2="1120.03244" id="Stroke-665"></line>
        <line x1="978.303855" y1="984.952275" x2="991.98525" y2="1001.84746" id="Stroke-666"></line>
        <line x1="1118.4607" y1="1158.0316" x2="1202.7784" y2="1262.15502" id="Stroke-667"></line>
        <line x1="1227.77771" y1="1293.02683" x2="1268.93837" y2="1343.85631" id="Stroke-668"></line>
        <line x1="1384.65977" y1="1486.7601" x2="1461.74343" y2="1581.95084" id="Stroke-669"></line>
        <line x1="1509.31265" y1="1640.69327" x2="1547.85502" y2="1688.28919" id="Stroke-670"></line>
        <line x1="1290.93144" y1="1371.01518" x2="1318.29533" y2="1404.80555" id="Stroke-671"></line>
        <line x1="1331.59503" y1="1421.23069" x2="1345.27642" y2="1438.12588" id="Stroke-672"></line>
        <line x1="1488.27744" y1="1614.71719" x2="1501.95884" y2="1631.61237" id="Stroke-673"></line>
        <line x1="391.604135" y1="181.433855" x2="417.41442" y2="216.959118" id="Stroke-674"></line>
        <line x1="568.162812" y1="424.446078" x2="650.790664" y2="538.173505" id="Stroke-675"></line>
        <line x1="677.680452" y1="575.184141" x2="711.421376" y2="621.625295" id="Stroke-676"></line>
        <line x1="462.23132" y1="278.644062" x2="535.476011" y2="379.457007" id="Stroke-677"></line>
        <line x1="765.463659" y1="696.007392" x2="951.65348" y2="952.27646" id="Stroke-678"></line>
        <line x1="996.082637" y1="1013.42709" x2="1078.60171" y2="1127.00509" id="Stroke-679"></line>
        <line x1="976.435902" y1="986.385679" x2="989.214141" y2="1003.97416" id="Stroke-680"></line>
        <line x1="1107.34231" y1="1166.56303" x2="1186.09494" y2="1274.95721" id="Stroke-681"></line>
        <line x1="1209.44451" y1="1307.09454" x2="1247.8891" y2="1360.00832" id="Stroke-682"></line>
        <line x1="1355.97235" y1="1508.77284" x2="1427.96888" y2="1607.86737" id="Stroke-683"></line>
        <line x1="1472.39782" y1="1669.01888" x2="1508.39663" y2="1718.56614" id="Stroke-684"></line>
        <line x1="1268.42998" y1="1388.28119" x2="1293.98756" y2="1423.45815" id="Stroke-685"></line>
        <line x1="1306.40992" y1="1440.55594" x2="1319.18816" y2="1458.14442" id="Stroke-686"></line>
        <line x1="1452.75119" y1="1641.97736" x2="1465.52943" y2="1659.56584" id="Stroke-687"></line>
        <line x1="432.593057" y1="153.262947" x2="456.50913" y2="190.090206" id="Stroke-688"></line>
        <line x1="596.191545" y1="405.18247" x2="672.753304" y2="523.078482" id="Stroke-689"></line>
        <line x1="697.669991" y1="561.445722" x2="728.934376" y2="609.588809" id="Stroke-690"></line>
        <line x1="498.03588" y1="254.036228" x2="565.904481" y2="358.544205" id="Stroke-691"></line>
        <line x1="779.009581" y1="686.697626" x2="951.53229" y2="952.359744" id="Stroke-692"></line>
        <line x1="992.699975" y1="1015.75201" x2="1069.16175" y2="1133.4931" id="Stroke-693"></line>
        <line x1="974.495324" y1="987.719318" x2="986.336346" y2="1005.95276" id="Stroke-694"></line>
        <line x1="1095.79268" y1="1174.50081" x2="1168.76488" y2="1286.868" id="Stroke-695"></line>
        <line x1="1190.39999" y1="1320.18339" x2="1226.02194" y2="1375.03643" id="Stroke-696"></line>
        <line x1="1326.17191" y1="1529.25395" x2="1392.88355" y2="1631.98088" id="Stroke-697"></line>
        <line x1="1434.05145" y1="1695.3737" x2="1467.40782" y2="1746.73716" id="Stroke-698"></line>
        <line x1="1245.0558" y1="1404.34584" x2="1268.73675" y2="1440.81162" id="Stroke-699"></line>
        <line x1="1280.2476" y1="1458.53678" x2="1292.08862" y2="1476.77022" id="Stroke-700"></line>
        <line x1="1415.84669" y1="1667.34101" x2="1427.68772" y2="1685.57445" id="Stroke-701"></line>
        <line x1="475.00011" y1="127.275876" x2="496.956047" y2="165.304048" id="Stroke-702"></line>
        <line x1="625.189907" y1="387.412148" x2="695.476814" y2="509.152618" id="Stroke-703"></line>
        <line x1="718.351181" y1="548.772301" x2="747.053325" y2="598.485475" id="Stroke-704"></line>
        <line x1="535.079259" y1="231.33601" x2="597.384986" y2="339.253349" id="Stroke-705"></line>
        <line x1="793.024002" y1="678.109506" x2="951.407145" y2="952.436216" id="Stroke-706"></line>
        <line x1="989.200188" y1="1017.89662" x2="1059.3948" y2="1139.47777" id="Stroke-707"></line>
        <line x1="972.487723" y1="988.949567" x2="983.357467" y2="1007.77742" id="Stroke-708"></line>
        <line x1="1083.84343" y1="1181.82341" x2="1150.83414" y2="1297.85597" id="Stroke-709"></line>
        <line x1="1170.69656" y1="1332.25767" x2="1203.39918" y2="1388.90054" id="Stroke-710"></line>
        <line x1="1295.34054" y1="1548.1474" x2="1356.58489" y2="1654.22546" id="Stroke-711"></line>
        <line x1="1394.37826" y1="1719.68553" x2="1424.99989" y2="1772.72456" id="Stroke-712"></line>
        <line x1="1220.87274" y1="1419.16519" x2="1242.61333" y2="1456.82089" id="Stroke-713"></line>
        <line x1="1253.18037" y1="1475.12366" x2="1264.05011" y2="1493.95151" id="Stroke-714"></line>
        <line x1="1377.66569" y1="1690.73859" x2="1388.53543" y2="1709.56644" id="Stroke-715"></line>
        <line x1="518.709159" y1="103.543731" x2="538.644531" y2="142.669534" id="Stroke-716"></line>
        <line x1="655.078681" y1="371.184004" x2="718.898459" y2="496.436018" id="Stroke-717"></line>
        <line x1="739.667327" y1="537.198601" x2="765.728123" y2="588.346717" id="Stroke-718"></line>
        <line x1="573.259824" y1="210.605597" x2="629.832374" y2="321.63564" id="Stroke-719"></line>
        <line x1="807.468796" y1="670.266546" x2="951.277275" y2="952.506315" id="Stroke-720"></line>
        <line x1="985.593054" y1="1019.85511" x2="1049.32933" y2="1144.94341" id="Stroke-721"></line>
        <line x1="970.418374" y1="990.073129" x2="980.288272" y2="1009.44375" id="Stroke-722"></line>
        <line x1="1071.52732" y1="1188.5105" x2="1132.35415" y2="1307.8898" id="Stroke-723"></line>
        <line x1="1150.38828" y1="1343.28409" x2="1180.08148" y2="1401.56078" id="Stroke-724"></line>
        <line x1="1263.56283" y1="1565.40142" x2="1319.17069" y2="1674.53945" id="Stroke-725"></line>
        <line x1="1353.48702" y1="1741.88758" x2="1381.2915" y2="1796.45605" id="Stroke-726"></line>
        <line x1="1195.94737" y1="1432.69859" x2="1215.68717" y2="1471.43983" id="Stroke-727"></line>
        <line x1="1225.28195" y1="1490.2712" x2="1235.15184" y2="1509.64183" id="Stroke-728"></line>
        <line x1="1338.31234" y1="1712.10572" x2="1348.18224" y2="1731.47634" id="Stroke-729"></line>
        <line x1="563.600333" y1="82.1317748" x2="581.4613" y2="122.247535" id="Stroke-730"></line>
        <line x1="685.775791" y1="356.542207" x2="742.952642" y2="484.962961" id="Stroke-731"></line>
        <line x1="761.559978" y1="526.756373" x2="784.908007" y2="579.197695" id="Stroke-732"></line>
        <line x1="612.473087" y1="191.901793" x2="663.157538" y2="305.740192" id="Stroke-733"></line>
        <line x1="822.304299" y1="663.19039" x2="951.144768" y2="952.569712" id="Stroke-734"></line>
        <line x1="981.888464" y1="1021.6222" x2="1038.9906" y2="1149.87484" id="Stroke-735"></line>
        <line x1="968.293208" y1="991.086818" x2="977.135794" y2="1010.94748" id="Stroke-736"></line>
        <line x1="1058.87807" y1="1194.54385" x2="1113.37402" y2="1316.94246" id="Stroke-737"></line>
        <line x1="1129.53074" y1="1353.23266" x2="1156.13321" y2="1412.98384" id="Stroke-738"></line>
        <line x1="1230.92547" y1="1580.96857" x2="1280.74632" y2="1692.86661" id="Stroke-739"></line>
        <line x1="1311.48979" y1="1761.91931" x2="1336.40022" y2="1817.86888" id="Stroke-740"></line>
        <line x1="1170.34782" y1="1444.90889" x2="1188.03299" y2="1484.63021" id="Stroke-741"></line>
        <line x1="1196.62924" y1="1503.93798" x2="1205.47183" y2="1523.79864" id="Stroke-742"></line>
        <line x1="1297.89465" y1="1731.38394" x2="1306.73723" y2="1751.2446" id="Stroke-743"></line>
        <line x1="609.550573" y1="63.0985712" x2="625.287694" y2="104.093316" id="Stroke-744"></line>
        <line x1="717.197074" y1="343.527082" x2="767.573881" y2="474.763883" id="Stroke-745"></line>
        <line x1="783.969032" y1="517.474186" x2="804.540569" y2="571.065879" id="Stroke-746"></line>
        <line x1="652.611481" y1="175.275909" x2="697.268295" y2="291.611722" id="Stroke-747"></line>
        <line x1="837.489747" y1="656.900376" x2="951.008415" y2="952.625967" id="Stroke-748"></line>
        <line x1="978.096304" y1="1023.19294" x2="1028.40719" y2="1154.25834" id="Stroke-749"></line>
        <line x1="966.117721" y1="991.987887" x2="973.908822" y2="1012.28474" id="Stroke-750"></line>
        <line x1="1045.93041" y1="1199.90687" x2="1093.94494" y2="1324.99078" id="Stroke-751"></line>
        <line x1="1108.18131" y1="1362.07591" x2="1131.62053" y2="1423.13677" id="Stroke-752"></line>
        <line x1="1197.51812" y1="1594.80643" x2="1241.41351" y2="1709.15903" id="Stroke-753"></line>
        <line x1="1268.50184" y1="1779.72546" x2="1290.45009" y2="1836.90121" id="Stroke-754"></line>
        <line x1="1144.14419" y1="1455.76281" x2="1159.72639" y2="1496.35542" id="Stroke-755"></line>
        <line x1="1167.30016" y1="1516.08632" x2="1175.09126" y2="1536.38317" id="Stroke-756"></line>
        <line x1="1256.52337" y1="1748.52051" x2="1264.31447" y2="1768.81737" id="Stroke-757"></line>
        <line x1="656.433965" y1="46.4963094" x2="670.00329" y2="88.2590668" id="Stroke-758"></line>
        <line x1="749.256391" y1="332.174336" x2="792.695811" y2="465.867899" id="Stroke-759"></line>
        <line x1="806.83329" y1="509.377529" x2="824.572299" y2="563.972363" id="Stroke-760"></line>
        <line x1="693.564913" y1="160.773431" x2="732.072131" y2="279.286929" id="Stroke-761"></line>
        <line x1="852.983609" y1="651.413754" x2="950.869536" y2="952.675849" id="Stroke-762"></line>
        <line x1="974.227124" y1="1024.56306" x2="1017.61051" y2="1158.08192" id="Stroke-763"></line>
        <line x1="963.898285" y1="992.773919" x2="970.615925" y2="1013.44984" id="Stroke-764"></line>
        <line x1="1032.71993" y1="1204.58504" x2="1074.1223" y2="1332.00925" id="Stroke-765"></line>
        <line x1="1086.39809" y1="1369.78977" x2="1106.60924" y2="1431.99441" id="Stroke-766"></line>
        <line x1="1163.4323" y1="1606.87675" x2="1201.28358" y2="1723.36969" id="Stroke-767"></line>
        <line x1="1224.64084" y1="1795.25744" x2="1243.56647" y2="1853.50446" id="Stroke-768"></line>
        <line x1="1117.40867" y1="1465.23047" x2="1130.84505" y2="1506.5834" id="Stroke-769"></line>
        <line x1="1137.3759" y1="1526.68314" x2="1144.09464" y2="1547.35906" id="Stroke-770"></line>
        <line x1="1214.312" y1="1763.46831" x2="1221.03074" y2="1784.14422" id="Stroke-771"></line>
        <line x1="704.122068" y1="32.370477" x2="715.487339" y2="74.7858805" id="Stroke-772"></line>
        <line x1="781.866061" y1="322.514735" x2="818.249433" y2="458.299182" id="Stroke-773"></line>
        <line x1="830.089795" y1="502.488596" x2="844.946833" y2="557.937145" id="Stroke-774"></line>
        <line x1="735.221313" y1="148.434355" x2="767.473457" y2="268.800313" id="Stroke-775"></line>
        <line x1="868.743364" y1="646.745577" x2="950.728459" y2="952.716832" id="Stroke-776"></line>
        <line x1="970.29169" y1="1025.72881" x2="1006.62672" y2="1161.33526" id="Stroke-777"></line>
        <line x1="961.640613" y1="993.442607" x2="967.267214" y2="1014.44265" id="Stroke-778"></line>
        <line x1="1019.28256" y1="1208.56542" x2="1053.9596" y2="1337.98272" id="Stroke-779"></line>
        <line x1="1064.24108" y1="1376.35293" x2="1081.16923" y2="1439.52995" id="Stroke-780"></line>
        <line x1="1128.76163" y1="1617.14681" x2="1160.46441" y2="1735.46144" id="Stroke-781"></line>
        <line x1="1180.0272" y1="1808.47265" x2="1195.87859" y2="1867.62941" id="Stroke-782"></line>
        <line x1="1090.2142" y1="1473.2857" x2="1101.4674" y2="1515.28469" id="Stroke-783"></line>
        <line x1="1106.93787" y1="1535.69932" x2="1112.56447" y2="1556.69937" id="Stroke-784"></line>
        <line x1="1171.37602" y1="1776.18644" x2="1177.00262" y2="1797.18649" id="Stroke-785"></line>
        <line x1="752.484022" y1="20.7597492" x2="761.613376" y2="63.7124321" id="Stroke-786"></line>
        <line x1="814.93654" y1="314.575416" x2="844.163877" y2="452.077179" id="Stroke-787"></line>
        <line x1="853.67515" y1="496.826287" x2="865.609564" y2="552.975826" id="Stroke-788"></line>
        <line x1="777.466304" y1="138.292191" x2="803.374376" y2="260.18099" id="Stroke-789"></line>
        <line x1="884.725832" y1="642.908369" x2="950.584854" y2="952.751552" id="Stroke-790"></line>
        <line x1="966.30055" y1="1026.68701" x2="995.489433" y2="1164.00969" id="Stroke-791"></line>
        <line x1="959.351078" y1="993.992302" x2="963.871257" y2="1015.25714" id="Stroke-792"></line>
        <line x1="1005.65533" y1="1211.837" x2="1033.51145" y2="1342.89141" id="Stroke-793"></line>
        <line x1="1041.77094" y1="1381.74758" x2="1055.36993" y2="1445.72338" id="Stroke-794"></line>
        <line x1="1093.60082" y1="1625.58803" x2="1119.0672" y2="1745.39913" id="Stroke-795"></line>
        <line x1="1134.78301" y1="1819.33481" x2="1147.5162" y2="1879.24091" id="Stroke-796"></line>
        <line x1="1062.63529" y1="1479.90687" x2="1071.67565" y2="1522.43764" id="Stroke-797"></line>
        <line x1="1076.06969" y1="1543.11015" x2="1080.58987" y2="1564.37499" id="Stroke-798"></line>
        <line x1="1127.83342" y1="1786.6401" x2="1132.3536" y2="1807.90603" id="Stroke-799"></line>
        <line x1="801.387431" y1="11.6959893" x2="808.256696" y2="55.0672886" id="Stroke-800"></line>
        <line x1="848.37718" y1="308.377475" x2="870.368277" y2="447.220789" id="Stroke-801"></line>
        <line x1="877.524421" y1="492.405983" x2="886.504348" y2="549.103788" id="Stroke-802"></line>
        <line x1="820.184298" y1="130.374956" x2="839.677979" y2="253.452582" id="Stroke-803"></line>
        <line x1="900.887283" y1="639.913009" x2="950.440042" y2="952.7788" id="Stroke-804"></line>
        <line x1="962.264692" y1="1027.43503" x2="984.226123" y2="1166.09705" id="Stroke-805"></line>
        <line x1="957.035833" y1="994.421356" x2="960.436404" y2="1015.89385" id="Stroke-806"></line>
        <line x1="991.875597" y1="1214.39089" x2="1012.83499" y2="1346.72422" id="Stroke-807"></line>
        <line x1="1019.0493" y1="1385.9588" x2="1029.28068" y2="1450.55868" id="Stroke-808"></line>
        <line x1="1058.04644" y1="1632.17778" x2="1077.2083" y2="1753.15793" id="Stroke-809"></line>
        <line x1="1089.0323" y1="1827.81416" x2="1098.61323" y2="1888.30478" id="Stroke-810"></line>
        <line x1="1034.74785" y1="1485.07552" x2="1041.5501" y2="1528.02052" id="Stroke-811"></line>
        <line x1="1044.85585" y1="1548.89519" x2="1048.25642" y2="1570.36769" id="Stroke-812"></line>
        <line x1="1083.80344" y1="1794.80059" x2="1087.20401" y2="1816.27309" id="Stroke-813"></line>
        <line x1="850.698139" y1="5.2041384" x2="855.288637" y2="48.8753912" id="Stroke-814"></line>
        <line x1="882.096349" y1="303.938273" x2="896.790775" y2="443.741878" id="Stroke-816"></line>
        <line x1="901.572342" y1="489.2401" x2="907.57251" y2="546.330152" id="Stroke-817"></line>
        <line x1="863.258061" y1="124.704187" x2="876.283514" y2="248.633329" id="Stroke-818"></line>
        <line x1="917.183219" y1="637.767738" x2="950.29457" y2="952.798028" id="Stroke-819"></line>
        <line x1="958.195213" y1="1027.97077" x2="972.869862" y2="1167.59199" id="Stroke-820"></line>
        <line x1="954.701359" y1="994.728781" x2="956.973534" y2="1016.34961" id="Stroke-821"></line>
        <line x1="977.981047" y1="1216.22016" x2="991.98547" y2="1349.46874" id="Stroke-822"></line>
        <line x1="996.138343" y1="1388.97503" x2="1002.97465" y2="1454.02209" id="Stroke-823"></line>
        <line x1="1022.19606" y1="1636.89748" x2="1034.99957" y2="1758.71487" id="Stroke-824"></line>
        <line x1="1042.90055" y1="1833.8875" x2="1049.30175" y2="1894.79564" id="Stroke-825"></line>
        <line x1="1006.62793" y1="1488.77759" x2="1011.17338" y2="1532.02033" id="Stroke-827"></line>
        <line x1="1013.38215" y1="1553.03883" x2="1015.65433" y2="1574.66076" id="Stroke-828"></line>
        <line x1="1039.40658" y1="1800.64551" x2="1041.67876" y2="1822.26633" id="Stroke-829"></line>
        <line x1="900.281003" y1="1.30188612" x2="902.579548" y2="45.1533308" id="Stroke-830"></line>
        <line x1="916.001643" y1="301.269896" x2="923.358745" y2="441.651433" id="Stroke-832"></line>
        <line x1="925.753099" y1="487.337099" x2="928.757029" y2="544.662279" id="Stroke-833"></line>
        <line x1="906.569589" y1="121.295485" x2="913.091655" y2="245.736635" id="Stroke-834"></line>
        <line x1="933.56925" y1="636.478047" x2="950.147999" y2="952.809235" id="Stroke-835"></line>
        <line x1="954.10332" y1="1028.29281" x2="961.450533" y2="1168.49086" id="Stroke-836"></line>
        <line x1="952.354031" y1="994.913478" x2="953.492316" y2="1016.6244" id="Stroke-837"></line>
        <line x1="964.009806" y1="1217.31966" x2="971.021906" y2="1351.1187" id="Stroke-838"></line>
        <line x1="973.100925" y1="1390.78816" x2="976.52457" y2="1456.10331" id="Stroke-839"></line>
        <line x1="986.147694" y1="1639.73463" x2="992.557689" y2="1762.05523" id="Stroke-840"></line>
        <line x1="996.514109" y1="1837.53825" x2="999.719107" y2="1898.698" id="Stroke-841"></line>
        <line x1="978.352968" y1="1491.00285" x2="980.628439" y2="1534.42469" id="Stroke-843"></line>
        <line x1="981.734641" y1="1555.52966" x2="982.872927" y2="1577.24058" id="Stroke-844"></line>
        <line x1="994.76482" y1="1804.15892" x2="995.903105" y2="1825.86984" id="Stroke-845"></line>
        <line x1="950.00022" y1="0" x2="950.00022" y2="43.9118749" id="Stroke-846"></line>
        <line x1="950.00022" y1="300.379594" x2="950.00022" y2="440.953409" id="Stroke-849"></line>
        <line x1="950.00022" y1="486.702032" x2="950.00022" y2="544.106321" id="Stroke-850"></line>
        <line x1="950.00022" y1="120.158188" x2="950.00022" y2="244.769642" id="Stroke-851"></line>
        <line x1="950.00022" y1="636.047784" x2="950.00022" y2="952.812971" id="Stroke-852"></line>
        <line x1="950.00022" y1="1028.40027" x2="950.00022" y2="1168.79059" id="Stroke-853"></line>
        <line x1="950.00022" y1="994.975117" x2="950.00022" y2="1016.7157" id="Stroke-854"></line>
        <line x1="950.00022" y1="1217.68664" x2="950.00022" y2="1351.66917" id="Stroke-855"></line>
        <line x1="950.00022" y1="1391.39312" x2="950.00022" y2="1456.79837" id="Stroke-856"></line>
        <line x1="950.00022" y1="1640.68107" x2="950.00022" y2="1763.16868" id="Stroke-857"></line>
        <line x1="950.00022" y1="1838.75631" x2="950.00022" y2="1900.00066" id="Stroke-858"></line>
        <line x1="950.00022" y1="1491.74526" x2="950.00022" y2="1535.22643" id="Stroke-861"></line>
        <line x1="950.00022" y1="1556.36052" x2="950.00022" y2="1578.1011" id="Stroke-862"></line>
        <line x1="950.00022" y1="1805.33116" x2="950.00022" y2="1827.07174" id="Stroke-863"></line>
      </g>
    </g>
  </g>
</svg>
