<?xml version="1.0" encoding="UTF-8"?>
<svg xmlns="http://www.w3.org/2000/svg" width="78" height="108" viewBox="0 0 78 108" fill="none">
  <path d="M13.06 54.0723C11.6194 51.5876 10.5277 48.8698 9.85156 45.9983" stroke="white" stroke-width="3"></path>
  <path d="M13.06 54.0712C11.6194 56.5547 10.5277 59.2724 9.85156 62.1445" stroke="white" stroke-width="3"></path>
  <path d="M68.2356 76.0015C67.9587 75.9618 67.6873 75.906 67.4219 75.8345" stroke="white" stroke-width="3"></path>
  <path d="M68.2481 62.1445C67.5731 59.2724 66.4826 56.5553 65.042 54.0712" stroke="white" stroke-width="3"></path>
  <path d="M65.042 54.0723C66.4826 51.5876 67.5731 48.8698 68.2481 45.9983" stroke="white" stroke-width="3"></path>
  <path fill-rule="evenodd" clip-rule="evenodd" d="M46.0588 99.1652C46.0588 95.3121 42.9218 92.1885 39.0516 92.1885C35.1831 92.1885 32.0449 95.3121 32.0449 99.1652C32.0449 103.019 35.1831 106.143 39.0516 106.143C42.9218 106.143 46.0588 103.019 46.0588 99.1652Z" stroke="white" stroke-width="3"></path>
  <path fill-rule="evenodd" clip-rule="evenodd" d="M15.8703 39.0402C15.8703 35.1859 12.7333 32.0611 8.86309 32.0611C4.99226 32.0611 1.85644 35.1859 1.85645 39.0402C1.85645 42.8945 4.99226 46.0181 8.86309 46.0181C12.7333 46.0181 15.8703 42.8945 15.8703 39.0402Z" stroke="white" stroke-width="3"></path>
  <path d="M39.0518 16.0894L39.0518 32.062" stroke="white" stroke-width="3"></path>
  <path d="M37.3966 75.8771C34.9141 80.7165 29.8687 84.0303 24.0498 84.0303C18.213 84.0303 13.1562 80.6981 10.6797 75.8359" stroke="white" stroke-width="3"></path>
  <path d="M67.4224 32.3071C64.9465 27.445 59.8903 24.1134 54.0522 24.1134C48.2333 24.1134 43.1897 27.4265 40.7061 32.266" stroke="white" stroke-width="3"></path>
  <path d="M32.1028 68.2378C23.9834 66.3175 17.1341 61.0936 13.0615 54.0704" stroke="white" stroke-width="3"></path>
  <path d="M13.0615 54.0723C17.1347 47.0491 23.9834 41.824 32.1028 39.9037" stroke="white" stroke-width="3"></path>
  <path d="M67.423 75.8359C64.9471 80.6987 59.8909 84.0303 54.0522 84.0303C48.2327 84.0303 43.1891 80.7165 40.7061 75.8771" stroke="white" stroke-width="3"></path>
  <path d="M39.0518 62.0933L39.0518 46.0467" stroke="white" stroke-width="3"></path>
  <path d="M45.998 39.9027C54.1186 41.8224 60.9679 47.0475 65.0423 54.0713" stroke="white" stroke-width="3"></path>
  <path d="M45.9824 9.94054C56.9758 12.5301 65.6308 21.1667 68.2358 32.1401" stroke="white" stroke-width="3"></path>
  <path d="M39.0518 76.0801L39.0518 92.0527" stroke="white" stroke-width="3"></path>
  <path d="M9.85156 32.1875C12.4433 21.192 21.1098 12.5358 32.1175 9.94202" stroke="white" stroke-width="3"></path>
  <path d="M9.86523 76.0006C12.472 86.98 21.1354 95.6201 32.1354 98.2056" stroke="white" stroke-width="3"></path>
  <path d="M45.998 68.2397C54.1186 66.32 60.9679 61.0956 65.0423 54.0718" stroke="white" stroke-width="3"></path>
  <path d="M68.2368 76.0006C65.6312 86.98 56.969 95.6201 45.9678 98.2056" stroke="white" stroke-width="3"></path>
  <path d="M37.3955 32.2656C34.9131 27.4261 29.8682 24.113 24.0494 24.113C18.2029 24.113 13.1389 27.4553 10.666 32.3306" stroke="white" stroke-width="3"></path>
  <path fill-rule="evenodd" clip-rule="evenodd" d="M39.0534 76.0796L39.0516 76.0796C38.4811 76.0796 37.9292 76.0039 37.3984 75.8758C34.328 75.1349 32.0449 72.388 32.0449 69.1023C32.0449 68.8091 32.0689 68.5218 32.1038 68.2387C32.5319 64.7932 35.4768 62.1244 39.0516 62.1244C42.6276 62.1244 45.5718 64.7932 45.9994 68.2387C46.0348 68.5224 46.0588 68.8091 46.0588 69.1023C46.0588 72.3874 43.7769 75.1343 40.7072 75.8758C40.1757 76.0039 39.6238 76.0796 39.0534 76.0796Z" stroke="white" stroke-width="3"></path>
  <path fill-rule="evenodd" clip-rule="evenodd" d="M45.9834 9.94199C45.5108 13.3386 42.5917 15.9556 39.0512 15.9556C35.5112 15.9556 32.591 13.3392 32.119 9.94258C32.0746 9.62671 32.0439 9.30606 32.0439 8.97767C32.0439 5.12337 35.1816 2.00036 39.0512 2.00036C42.9208 2.00036 46.0578 5.12337 46.0578 8.97767C46.0578 9.30606 46.0272 9.62611 45.9834 9.94199Z" stroke="white" stroke-width="3"></path>
  <path fill-rule="evenodd" clip-rule="evenodd" d="M39.0534 32.062C39.6244 32.062 40.1763 32.1377 40.7078 32.2659C43.7769 33.0079 46.0588 35.7554 46.0588 39.0411C46.0588 39.3338 46.0348 39.6204 45.9994 39.9035C45.5718 43.3502 42.6276 46.019 39.0516 46.019C35.4768 46.019 32.5313 43.3502 32.1038 39.9041C32.0689 39.6204 32.0449 39.3338 32.0449 39.0411C32.0449 35.7548 34.328 33.0073 37.3978 32.2659C37.9292 32.1377 38.4811 32.062 39.0516 32.062L39.0534 32.062Z" stroke="white" stroke-width="3"></path>
  <path fill-rule="evenodd" clip-rule="evenodd" d="M9.86473 76.0003C9.53686 76.0468 9.20418 76.0796 8.86309 76.0796C4.99226 76.0796 1.85645 72.9566 1.85645 69.1023C1.85644 65.2486 4.99226 62.1244 8.86309 62.1244C12.7333 62.1244 15.8703 65.2486 15.8703 69.1023C15.8703 72.3296 13.6677 75.0366 10.6796 75.8346C10.4142 75.9056 10.1422 75.961 9.86473 76.0003Z" stroke="white" stroke-width="3"></path>
  <path d="M68.2361 76.0003C68.564 76.0468 68.8966 76.0796 69.2377 76.0796C73.1074 76.0796 76.2444 72.9566 76.2444 69.1023C76.2444 65.2486 73.1073 62.1244 69.2377 62.1244C65.3687 62.1244 62.2305 65.2486 62.2305 69.1023C62.2305 72.3302 64.4349 75.0372 67.4224 75.8346" stroke="white" stroke-width="3"></path>
  <path fill-rule="evenodd" clip-rule="evenodd" d="M68.2361 32.1413C67.9593 32.1806 67.6878 32.2361 67.4218 32.307C64.4343 33.1044 62.2305 35.8126 62.2305 39.0411C62.2305 42.8954 65.3687 46.019 69.2377 46.019C73.1074 46.019 76.2444 42.8954 76.2444 39.0411C76.2444 35.1863 73.1073 32.062 69.2377 32.062C68.8966 32.062 68.564 32.0948 68.2361 32.1413Z" stroke="white" stroke-width="3"></path>
</svg>
