<?xml version="1.0" encoding="UTF-8"?>
<svg xmlns="http://www.w3.org/2000/svg" xmlns:xlink="http://www.w3.org/1999/xlink" width="52px" height="55px" viewBox="0 0 52 55" version="1.1">
  <title>Group 29</title>
  <g id="Homepage" stroke="none" stroke-width="1" fill="none" fill-rule="evenodd">
    <g id="Homepage---R1" transform="translate(-859.000000, -6142.000000)" stroke="#FFFFFF" stroke-width="1.5">
      <g id="Group-29" transform="translate(860.000000, 6143.500000)">
        <path d="M50,11.5977384 C50,18.0031714 44.8076946,23.1954768 38.4022616,23.1954768 C34.0392413,23.1954768 30.2395654,20.7864432 28.2597464,17.225551 C27.3330931,15.5590323 26.8045232,13.63982 26.8045232,11.5977384 C26.8045232,5.1923054 31.9968286,0 38.4022616,0 C44.8076946,0 50,5.1923054 50,11.5977384 Z" id="Stroke-1"></path>
        <path d="M23.1954768,26.4701265 C23.1954768,28.4671671 22.6900898,30.3459749 21.8025162,31.9866612 C19.8405812,35.6084913 16.0061309,38.0678649 11.5977384,38.0678649 C5.1923054,38.0678649 0,32.8755595 0,26.4701265 C0,20.0660183 5.1923054,14.8723881 11.5977384,14.8723881 C15.9607587,14.8723881 19.7601034,17.2814218 21.7402536,20.8423139 C22.6669069,22.5088327 23.1954768,24.4277138 23.1954768,26.4701265 Z" id="Stroke-3"></path>
        <path d="M16.6787328,26.4707558 C16.6787328,23.6643011 14.4034976,21.3890659 11.5970429,21.3890659 C8.79058828,21.3890659 6.51568422,23.6643011 6.51568422,26.4707558 C6.51568422,29.2772104 8.79058828,31.5524457 11.5970429,31.5524457 C14.4034976,31.5524457 16.6787328,29.2772104 16.6787328,26.4707558 Z" id="Stroke-5"></path>
        <path d="M43.4833222,40.9622159 C43.4833222,38.1557612 41.208087,35.880526 38.4016323,35.880526 C35.5951777,35.880526 33.3202736,38.1557612 33.3202736,40.9622159 C33.3202736,43.7686705 35.5951777,46.0439057 38.4016323,46.0439057 C41.208087,46.0439057 43.4833222,43.7686705 43.4833222,40.9622159 Z" id="Stroke-7"></path>
        <path d="M43.2253629,49.4014177 C41.754574,48.7327569 40.121836,48.3608371 38.4023278,48.3608371 C36.6824884,48.3608371 35.0497505,48.7327569 33.5789616,49.4014177" id="Stroke-9"></path>
        <path d="M16.5050267,34.8607437 C15.0133732,34.1675752 13.3508287,33.7814145 11.5975397,33.7814145 C9.84425071,33.7814145 8.18170618,34.1675752 6.69038387,34.8620684" id="Stroke-11"></path>
        <path d="M50,40.9615866 C50,47.3670196 44.8076946,52.559325 38.4022616,52.559325 C31.9968286,52.559325 26.8045232,47.3670196 26.8045232,40.9615866 C26.8045232,38.9645461 27.3099102,37.0857383 28.1974838,35.4450519 C30.1594188,31.8232218 33.9938691,29.3638482 38.4022616,29.3638482 C44.8076946,29.3638482 50,34.5574783 50,40.9615866 Z" id="Stroke-13"></path>
        <line x1="28.1974176" y1="35.4451513" x2="21.8025824" y2="31.986595" id="Stroke-15"></line>
        <line x1="38.4021954" y1="23.1955431" x2="38.4021954" y2="29.3638482" id="Stroke-17"></line>
        <line x1="21.7402205" y1="20.8422808" x2="28.2595808" y2="17.2254185" id="Stroke-19"></line>
        <line x1="34.8220614" y1="6.41434186" x2="34.8220614" y2="16.7810687" id="Stroke-21"></line>
        <line x1="41.9823293" y1="6.41434186" x2="41.9823293" y2="16.7810687" id="Stroke-23"></line>
        <line x1="34.8220614" y1="10.2988672" x2="41.9822631" y2="10.2988672" id="Stroke-25"></line>
        <line x1="34.8220614" y1="12.8965765" x2="41.9822631" y2="12.8965765" id="Stroke-27"></line>
      </g>
    </g>
  </g>
</svg>
