<?xml version="1.0" encoding="UTF-8"?>
<svg xmlns="http://www.w3.org/2000/svg" xmlns:xlink="http://www.w3.org/1999/xlink" width="44px" height="44px" viewBox="0 0 44 44" version="1.1">
  <title>Nav Icon - Roadmap-hvr</title>
  <defs>
    <linearGradient x1="100%" y1="100%" x2="-2.38383997e-12%" y2="-3.2187257e-14%" id="linearGradient-1">
      <stop stop-color="#2D84EB" offset="0%"></stop>
      <stop stop-color="#D173DE" offset="100%"></stop>
    </linearGradient>
  </defs>
  <g id="Homepage" stroke="none" stroke-width="1" fill="none" fill-rule="evenodd">
    <g id="Main-Nav---Prod-5" transform="translate(-1116.000000, -378.000000)" fill="url(#linearGradient-1)">
      <g id="Nav-Icon---Roadmap" transform="translate(1116.189667, 378.082464)">
        <path d="M8.343,0 C12.773,0 16.398,3.476 16.659,7.842 L27.568,7.842 C27.738,5.559 29.63,3.747 31.957,3.747 C34.291,3.747 36.189,5.571 36.347,7.866 C40.055,8.11 43,11.196 43,14.965 C43,18.892 39.804,22.087 35.878,22.087 L25.861,22.087 C25.571,24.246 23.736,25.921 21.5,25.921 C19.263,25.921 17.429,24.246 17.138,22.087 L7.122,22.087 C3.746,22.087 1,24.833 1,28.209 C1,31.435 3.508,34.079 6.675,34.309 C6.937,32.12 8.784,30.411 11.044,30.411 C13.31,30.411 15.162,32.132 15.414,34.332 L26.332,34.332 C26.505,29.884 30.167,26.315 34.658,26.315 C39.258,26.315 43,30.058 43,34.658 C43,39.258 39.258,43 34.658,43 C30.285,43 26.695,39.617 26.349,35.332 L15.414,35.332 C15.162,37.532 13.31,39.253 11.044,39.253 C8.769,39.253 6.912,37.52 6.67,35.309 C2.954,35.074 0,31.984 0,28.209 C0,24.282 3.195,21.087 7.122,21.087 L17.121,21.087 C17.332,18.845 19.204,17.079 21.5,17.079 C23.796,17.079 25.667,18.845 25.879,21.087 L35.878,21.087 C39.254,21.087 42,18.341 42,14.965 C42,11.734 39.483,9.086 36.307,8.864 C35.97,10.97 34.156,12.589 31.957,12.589 C29.749,12.589 27.931,10.959 27.603,8.842 L16.659,8.842 C16.398,13.209 12.773,16.685 8.343,16.685 C3.742,16.685 0,12.942 0,8.342 C0,3.742 3.742,0 8.343,0 Z M34.658,27.315 C30.609,27.315 27.315,30.609 27.315,34.658 C27.315,38.706 30.609,42 34.658,42 C38.706,42 42,38.706 42,34.658 C42,30.609 38.706,27.315 34.658,27.315 Z M11.044,31.411 C9.157,31.411 7.622,32.946 7.622,34.832 C7.622,36.719 9.157,38.253 11.044,38.253 C12.93,38.253 14.465,36.719 14.465,34.832 C14.465,32.946 12.93,31.411 11.044,31.411 Z M34.658,31.5437 C36.375,31.5437 37.771,32.9407 37.771,34.6577 C37.771,36.3747 36.375,37.7717 34.658,37.7717 C32.941,37.7717 31.544,36.3747 31.544,34.6577 C31.544,32.9407 32.941,31.5437 34.658,31.5437 Z M34.658,32.5437 C33.492,32.5437 32.544,33.4917 32.544,34.6577 C32.544,35.8237 33.492,36.7717 34.658,36.7717 C35.823,36.7717 36.771,35.8237 36.771,34.6577 C36.771,33.4917 35.823,32.5437 34.658,32.5437 Z M21.5,18.079 C19.613,18.079 18.079,19.614 18.079,21.5 C18.079,23.386 19.613,24.921 21.5,24.921 C23.387,24.921 24.921,23.386 24.921,21.5 C24.921,19.614 23.387,18.079 21.5,18.079 Z M8.343,1 C4.294,1 1,4.294 1,8.342 C1,12.391 4.294,15.685 8.343,15.685 C12.39,15.685 15.684,12.391 15.684,8.342 C15.684,4.294 12.39,1 8.343,1 Z M6.8475,4.0676 L10.7685,7.9886 C10.9635,8.1836 10.9635,8.5006 10.7685,8.6956 L6.8475,12.6166 C6.7495,12.7146 6.6215,12.7636 6.4935,12.7636 C6.3665,12.7636 6.2385,12.7146 6.1405,12.6166 C5.9455,12.4216 5.9455,12.1056 6.1405,11.9096 L9.7075,8.3426 L6.1405,4.7746 C5.9455,4.5796 5.9455,4.2626 6.1405,4.0676 C6.3355,3.8726 6.6525,3.8726 6.8475,4.0676 Z M31.957,4.747 C30.07,4.747 28.535,6.281 28.535,8.168 C28.535,10.054 30.07,11.589 31.957,11.589 C33.844,11.589 35.378,10.054 35.378,8.168 C35.378,6.281 33.844,4.747 31.957,4.747 Z" id="Combined-Shape"></path>
      </g>
    </g>
  </g>
</svg>
